<svg width="18" height="19" viewBox="0 0 18 19" fill="none" xmlns="http://www.w3.org/2000/svg">
<path d="M16.5 0.5H1.5C1.10218 0.5 0.720644 0.658035 0.43934 0.93934C0.158035 1.22064 0 1.60218 0 2V17C0 17.3978 0.158035 17.7794 0.43934 18.0607C0.720644 18.342 1.10218 18.5 1.5 18.5H16.5C16.8978 18.5 17.2794 18.342 17.5607 18.0607C17.842 17.7794 18 17.3978 18 17V2C18 1.60218 17.842 1.22064 17.5607 0.93934C17.2794 0.658035 16.8978 0.5 16.5 0.5ZM8.03063 11.5306L5.03063 14.5306C4.96097 14.6004 4.87825 14.6557 4.78721 14.6934C4.69616 14.7312 4.59856 14.7506 4.5 14.7506C4.40144 14.7506 4.30384 14.7312 4.21279 14.6934C4.12175 14.6557 4.03903 14.6004 3.96937 14.5306L2.46938 13.0306C2.32864 12.8899 2.24958 12.699 2.24958 12.5C2.24958 12.301 2.32864 12.1101 2.46938 11.9694C2.61011 11.8286 2.80098 11.7496 3 11.7496C3.19902 11.7496 3.38989 11.8286 3.53063 11.9694L4.5 12.9397L6.96937 10.4694C7.11011 10.3286 7.30098 10.2496 7.5 10.2496C7.69902 10.2496 7.88989 10.3286 8.03063 10.4694C8.17136 10.6101 8.25042 10.801 8.25042 11C8.25042 11.199 8.17136 11.3899 8.03063 11.5306ZM8.03063 5.53063L5.03063 8.53063C4.96097 8.60036 4.87825 8.65568 4.78721 8.69342C4.69616 8.73116 4.59856 8.75059 4.5 8.75059C4.40144 8.75059 4.30384 8.73116 4.21279 8.69342C4.12175 8.65568 4.03903 8.60036 3.96937 8.53063L2.46938 7.03063C2.39969 6.96094 2.34442 6.87822 2.3067 6.78717C2.26899 6.69613 2.24958 6.59855 2.24958 6.5C2.24958 6.30098 2.32864 6.11011 2.46938 5.96937C2.61011 5.82864 2.80098 5.74958 3 5.74958C3.19902 5.74958 3.38989 5.82864 3.53063 5.96937L4.5 6.93969L6.96937 4.46937C7.11011 4.32864 7.30098 4.24958 7.5 4.24958C7.69902 4.24958 7.88989 4.32864 8.03063 4.46937C8.17136 4.61011 8.25042 4.80098 8.25042 5C8.25042 5.19902 8.17136 5.38989 8.03063 5.53063ZM15 13.25H10.5C10.3011 13.25 10.1103 13.171 9.96967 13.0303C9.82902 12.8897 9.75 12.6989 9.75 12.5C9.75 12.3011 9.82902 12.1103 9.96967 11.9697C10.1103 11.829 10.3011 11.75 10.5 11.75H15C15.1989 11.75 15.3897 11.829 15.5303 11.9697C15.671 12.1103 15.75 12.3011 15.75 12.5C15.75 12.6989 15.671 12.8897 15.5303 13.0303C15.3897 13.171 15.1989 13.25 15 13.25ZM15 7.25H10.5C10.3011 7.25 10.1103 7.17098 9.96967 7.03033C9.82902 6.88968 9.75 6.69891 9.75 6.5C9.75 6.30109 9.82902 6.11032 9.96967 5.96967C10.1103 5.82902 10.3011 5.75 10.5 5.75H15C15.1989 5.75 15.3897 5.82902 15.5303 5.96967C15.671 6.11032 15.75 6.30109 15.75 6.5C15.75 6.69891 15.671 6.88968 15.5303 7.03033C15.3897 7.17098 15.1989 7.25 15 7.25Z" fill="#2275F2"/>
</svg>
