<svg width="18" height="21" viewBox="0 0 18 21" fill="none" xmlns="http://www.w3.org/2000/svg">
<path d="M17.0306 6.21938L11.7806 0.969375C11.7109 0.899749 11.6282 0.844539 11.5371 0.806898C11.4461 0.769257 11.3485 0.749923 11.25 0.75H2.25C1.85218 0.75 1.47064 0.908035 1.18934 1.18934C0.908035 1.47064 0.75 1.85218 0.75 2.25V18.75C0.75 19.1478 0.908035 19.5294 1.18934 19.8107C1.47064 20.092 1.85218 20.25 2.25 20.25H15.75C16.1478 20.25 16.5294 20.092 16.8107 19.8107C17.092 19.5294 17.25 19.1478 17.25 18.75V6.75C17.2501 6.65148 17.2307 6.55391 17.1931 6.46286C17.1555 6.37182 17.1003 6.28908 17.0306 6.21938ZM12 15H6C5.80109 15 5.61032 14.921 5.46967 14.7803C5.32902 14.6397 5.25 14.4489 5.25 14.25C5.25 14.0511 5.32902 13.8603 5.46967 13.7197C5.61032 13.579 5.80109 13.5 6 13.5H12C12.1989 13.5 12.3897 13.579 12.5303 13.7197C12.671 13.8603 12.75 14.0511 12.75 14.25C12.75 14.4489 12.671 14.6397 12.5303 14.7803C12.3897 14.921 12.1989 15 12 15ZM12 12H6C5.80109 12 5.61032 11.921 5.46967 11.7803C5.32902 11.6397 5.25 11.4489 5.25 11.25C5.25 11.0511 5.32902 10.8603 5.46967 10.7197C5.61032 10.579 5.80109 10.5 6 10.5H12C12.1989 10.5 12.3897 10.579 12.5303 10.7197C12.671 10.8603 12.75 11.0511 12.75 11.25C12.75 11.4489 12.671 11.6397 12.5303 11.7803C12.3897 11.921 12.1989 12 12 12ZM11.25 6.75V2.625L15.375 6.75H11.25Z" fill="#F26522"/>
</svg>
