<svg width="40" height="40" viewBox="0 0 40 40" fill="none" xmlns="http://www.w3.org/2000/svg">
<path d="M37.3499 29.9385C39.0337 27.0103 40 23.6167 40 19.997C40 8.95315 31.0465 1.10789e-07 20 1.10789e-07C8.95458 -0.00114996 0 8.95184 0 19.9957C0 25.7792 2.45452 30.9889 6.38623 34.642C6.48892 28.9439 6.6683 22.5702 6.97388 20.1974C7.5504 15.7338 11.7394 14.0154 17.2622 9.34154C18.8939 7.95604 21.4487 7.60214 24.7729 9.95519C28.3014 12.4541 31.7975 13.9016 32.9185 15.0448C34.3869 16.5428 33.7164 17.8987 32.3259 17.8987C30.9451 17.8987 28.2778 16.0665 26.453 15.1956C20.506 12.3404 19.9987 12.1177 17.2225 15.2501C14.2744 18.5793 12.5238 21.7945 16.3862 23.7528C19.6957 25.4291 23.0793 21.8637 25.1788 19.3598C27.0295 17.1565 29.4569 17.2889 30.2993 18.3491C31.1418 19.418 29.2713 20.0798 27.9388 21.4382C25.3123 24.1165 26.103 24.7919 24.0529 28.2993C22.3754 31.1706 20.0717 30.9777 17.9413 33.1043C17.1285 33.9109 16.9554 36.849 17.0036 39.7736C17.981 39.9257 18.9818 40 19.9987 40C23.6311 40 27.0344 39.0226 29.974 37.3304L36.771 38.4944C36.771 38.4944 38.8804 38.7356 38.362 35.9583C38.1307 34.7089 37.6877 32.0169 37.3499 29.9385ZM29.8403 11.5771L24.0542 8.40637C25.2541 8.5337 25.7232 8.52877 26.5953 8.68091C27.3351 8.81087 29.729 8.88759 30.3055 9.91444C30.8796 10.9326 29.8403 11.5771 29.8403 11.5771Z" fill="#F26522"/>
</svg>
