<svg width="18" height="19" viewBox="0 0 18 19" fill="none" xmlns="http://www.w3.org/2000/svg">
<path d="M14.25 8C14.25 8.19891 14.171 8.38968 14.0303 8.53033C13.8897 8.67098 13.6989 8.75 13.5 8.75H7.5C7.30109 8.75 7.11032 8.67098 6.96967 8.53033C6.82902 8.38968 6.75 8.19891 6.75 8C6.75 7.80109 6.82902 7.61032 6.96967 7.46967C7.11032 7.32902 7.30109 7.25 7.5 7.25H13.5C13.6989 7.25 13.8897 7.32902 14.0303 7.46967C14.171 7.61032 14.25 7.80109 14.25 8ZM13.5 10.25H7.5C7.30109 10.25 7.11032 10.329 6.96967 10.4697C6.82902 10.6103 6.75 10.8011 6.75 11C6.75 11.1989 6.82902 11.3897 6.96967 11.5303C7.11032 11.671 7.30109 11.75 7.5 11.75H13.5C13.6989 11.75 13.8897 11.671 14.0303 11.5303C14.171 11.3897 14.25 11.1989 14.25 11C14.25 10.8011 14.171 10.6103 14.0303 10.4697C13.8897 10.329 13.6989 10.25 13.5 10.25ZM18 2V17C18 17.3978 17.842 17.7794 17.5607 18.0607C17.2794 18.342 16.8978 18.5 16.5 18.5H1.5C1.10218 18.5 0.720644 18.342 0.43934 18.0607C0.158035 17.7794 0 17.3978 0 17V2C0 1.60218 0.158035 1.22064 0.43934 0.93934C0.720644 0.658035 1.10218 0.5 1.5 0.5H16.5C16.8978 0.5 17.2794 0.658035 17.5607 0.93934C17.842 1.22064 18 1.60218 18 2ZM1.5 17H3.75V2H1.5V17ZM16.5 17V2H5.25V17H16.5Z" fill="#F26522"/>
</svg>
