<svg width="22" height="19" viewBox="0 0 22 19" fill="none" xmlns="http://www.w3.org/2000/svg">
<path d="M21.5 6.3125C21.5 12.875 11.7697 18.1869 11.3553 18.4062C11.2461 18.465 11.124 18.4958 11 18.4958C10.876 18.4958 10.7539 18.465 10.6447 18.4062C10.3306 18.2375 4.68687 15.1541 1.95594 10.8228C1.92071 10.7661 1.90127 10.701 1.89963 10.6342C1.89799 10.5674 1.91421 10.5015 1.94661 10.4431C1.97901 10.3847 2.02641 10.336 2.08393 10.302C2.14144 10.2681 2.20697 10.2501 2.27375 10.25H5.75C5.87351 10.2501 5.99512 10.2197 6.10405 10.1614C6.21297 10.1032 6.30583 10.019 6.37438 9.91625L7.25 8.60375L9.62562 12.1663C9.71665 12.3028 9.84993 12.4057 10.005 12.4592C10.1602 12.5127 10.3285 12.5139 10.4844 12.4625C10.6497 12.4065 10.7911 12.2961 10.8856 12.1494L12.1512 10.25H14C14.1028 10.2502 14.2046 10.2293 14.299 10.1885C14.3934 10.1478 14.4784 10.0881 14.5487 10.0131C14.619 9.93807 14.6732 9.84942 14.7078 9.75261C14.7425 9.6558 14.7568 9.5529 14.75 9.45031C14.7332 9.25753 14.6442 9.07823 14.5007 8.94835C14.3573 8.81847 14.1701 8.74761 13.9766 8.75H11.75C11.6265 8.74992 11.5049 8.78034 11.396 8.83856C11.287 8.89679 11.1942 8.98101 11.1256 9.08375L10.25 10.3962L7.87438 6.83375C7.7833 6.69704 7.64986 6.59401 7.49455 6.54048C7.33924 6.48696 7.17065 6.48592 7.01469 6.5375C6.84979 6.5938 6.70873 6.70414 6.61438 6.85063L5.34875 8.75H1.20594C1.12579 8.75022 1.04768 8.72476 0.983066 8.67735C0.918448 8.62994 0.870718 8.56308 0.846875 8.48656C0.620672 7.7839 0.503684 7.05067 0.5 6.3125C0.501737 4.77146 1.11468 3.29404 2.20436 2.20436C3.29404 1.11468 4.77146 0.501737 6.3125 0.5C8.24844 0.5 9.94344 1.3325 11 2.73969C12.0566 1.3325 13.7516 0.5 15.6875 0.5C17.2285 0.501737 18.706 1.11468 19.7956 2.20436C20.8853 3.29404 21.4983 4.77146 21.5 6.3125Z" fill="#E02D2D"/>
</svg>
