<svg width="18" height="17" viewBox="0 0 18 17" fill="none" xmlns="http://www.w3.org/2000/svg">
<path d="M3.27419 11.8758C-2.15781 9.58482 -0.0143061 1.85132 3.75669 0.573818C5.32119 0.043818 7.04669 1.80232 7.03619 2.89382C7.03119 3.36582 6.78769 3.82632 6.53369 4.30582C6.20069 4.93582 5.84969 5.59832 5.99869 6.36482C6.26119 7.71482 6.55519 9.99282 5.79769 11.0738C5.04019 12.1553 4.27869 12.2993 3.27419 11.8758ZM14.1737 0.573818C17.9447 1.85132 20.0887 9.58482 14.6562 11.8758C13.6517 12.2998 12.8902 12.1553 12.1327 11.0738C11.3752 9.99282 11.6692 7.71482 11.9317 6.36482C12.0807 5.59832 11.7297 4.93532 11.3967 4.30582C11.1427 3.82632 10.8992 3.36582 10.8947 2.89382C10.8837 1.80232 12.6097 0.043818 14.1737 0.573818ZM11.3092 7.88932L11.3442 8.38782H11.3507L11.3522 8.38732L11.3397 8.38882C11.2289 8.40893 11.1238 8.45295 11.0317 8.51782C10.8867 8.62132 10.6737 8.85032 10.6737 9.42832V16.6613H9.67369V9.42832C9.67369 8.54532 10.0287 8.00482 10.4512 7.70332C10.6688 7.54927 10.9183 7.44622 11.1812 7.40182C11.2078 7.39777 11.2344 7.39443 11.2612 7.39182L11.2692 7.39082H11.2742C11.2742 7.39032 11.2752 7.39032 11.3092 7.88932ZM6.62119 7.88932C6.58719 8.38782 6.58669 8.38782 6.58619 8.38782H6.58019L6.57869 8.38732L6.59069 8.38882C6.70169 8.40886 6.80697 8.45288 6.89919 8.51782C7.04419 8.62132 7.25719 8.85032 7.25719 9.42832V16.6613H8.25719V9.42832C8.25719 8.54532 7.90219 8.00482 7.47919 7.70332C7.26159 7.54927 7.01208 7.44622 6.74919 7.40182C6.72262 7.39777 6.69595 7.39443 6.66919 7.39182L6.66169 7.39082H6.65619C6.65619 7.39032 6.65569 7.39032 6.62119 7.88932Z" fill="#F26522"/>
</svg>
