<svg width="22" height="18" viewBox="0 0 22 18" fill="none" xmlns="http://www.w3.org/2000/svg">
<path d="M20 0H14C13.4178 0 12.8437 0.135544 12.3229 0.395898C11.8022 0.656252 11.3493 1.03426 11 1.5C10.6507 1.03426 10.1978 0.656252 9.67705 0.395898C9.15634 0.135544 8.58217 0 8 0H2C1.60218 0 1.22064 0.158035 0.93934 0.43934C0.658035 0.720644 0.5 1.10218 0.5 1.5V13.5C0.5 13.8978 0.658035 14.2794 0.93934 14.5607C1.22064 14.842 1.60218 15 2 15H8C8.59674 15 9.16903 15.2371 9.59099 15.659C10.0129 16.081 10.25 16.6533 10.25 17.25C10.25 17.4489 10.329 17.6397 10.4697 17.7803C10.6103 17.921 10.8011 18 11 18C11.1989 18 11.3897 17.921 11.5303 17.7803C11.671 17.6397 11.75 17.4489 11.75 17.25C11.75 16.6533 11.9871 16.081 12.409 15.659C12.831 15.2371 13.4033 15 14 15H20C20.3978 15 20.7794 14.842 21.0607 14.5607C21.342 14.2794 21.5 13.8978 21.5 13.5V1.5C21.5 1.10218 21.342 0.720644 21.0607 0.43934C20.7794 0.158035 20.3978 0 20 0ZM8 13.5H2V1.5H8C8.59674 1.5 9.16903 1.73705 9.59099 2.15901C10.0129 2.58097 10.25 3.15326 10.25 3.75V14.25C9.6015 13.762 8.8116 13.4987 8 13.5ZM20 13.5H14C13.1884 13.4987 12.3985 13.762 11.75 14.25V3.75C11.75 3.15326 11.9871 2.58097 12.409 2.15901C12.831 1.73705 13.4033 1.5 14 1.5H20V13.5ZM14 3.75H17.75C17.9489 3.75 18.1397 3.82902 18.2803 3.96967C18.421 4.11032 18.5 4.30109 18.5 4.5C18.5 4.69891 18.421 4.88968 18.2803 5.03033C18.1397 5.17098 17.9489 5.25 17.75 5.25H14C13.8011 5.25 13.6103 5.17098 13.4697 5.03033C13.329 4.88968 13.25 4.69891 13.25 4.5C13.25 4.30109 13.329 4.11032 13.4697 3.96967C13.6103 3.82902 13.8011 3.75 14 3.75ZM18.5 7.5C18.5 7.69891 18.421 7.88968 18.2803 8.03033C18.1397 8.17098 17.9489 8.25 17.75 8.25H14C13.8011 8.25 13.6103 8.17098 13.4697 8.03033C13.329 7.88968 13.25 7.69891 13.25 7.5C13.25 7.30109 13.329 7.11032 13.4697 6.96967C13.6103 6.82902 13.8011 6.75 14 6.75H17.75C17.9489 6.75 18.1397 6.82902 18.2803 6.96967C18.421 7.11032 18.5 7.30109 18.5 7.5ZM18.5 10.5C18.5 10.6989 18.421 10.8897 18.2803 11.0303C18.1397 11.171 17.9489 11.25 17.75 11.25H14C13.8011 11.25 13.6103 11.171 13.4697 11.0303C13.329 10.8897 13.25 10.6989 13.25 10.5C13.25 10.3011 13.329 10.1103 13.4697 9.96967C13.6103 9.82902 13.8011 9.75 14 9.75H17.75C17.9489 9.75 18.1397 9.82902 18.2803 9.96967C18.421 10.1103 18.5 10.3011 18.5 10.5Z" fill="#9747FF"/>
</svg>
