<svg width="18" height="22" viewBox="0 0 18 22" fill="none" xmlns="http://www.w3.org/2000/svg">
<path d="M10.1962 1.76791L13.4462 7.39708C13.7223 7.87537 13.5584 8.48696 13.0801 8.7631L11.7806 9.51224L12.7811 11.2451L11.049 12.2451L10.0485 10.5122L8.75 11.2631C8.2717 11.5392 7.6601 11.3753 7.384 10.897L5.5462 7.7146C3.49383 8.3373 2 10.2441 2 12.4999C2 13.1253 2.1148 13.7238 2.32447 14.2756C3.0992 13.7839 4.01643 13.4999 5 13.4999C6.68408 13.4999 8.1737 14.3325 9.0797 15.6085L16.7681 11.1703L17.7681 12.9024L9.8898 17.4509C9.962 17.7892 10 18.1401 10 18.4999C10 18.8426 9.9655 19.1773 9.8999 19.5006L18 19.4999V21.4999L1.00054 21.5011C0.3723 20.6653 0 19.6261 0 18.4999C0 17.4927 0.29782 16.555 0.81021 15.7702C0.29276 14.7947 0 13.6815 0 12.4999C0 9.50464 1.88131 6.94875 4.52677 5.94942L4.13397 5.26791C3.58169 4.31133 3.90944 3.08815 4.86603 2.53586L7.4641 1.03586C8.4207 0.483577 9.6439 0.811329 10.1962 1.76791Z" fill="#115934"/>
</svg>
