<svg width="19" height="20" viewBox="0 0 19 20" fill="none" xmlns="http://www.w3.org/2000/svg">
<path d="M18.3113 5.37821L14.1216 1.18946C13.9823 1.05014 13.8169 0.939617 13.6349 0.864213C13.4529 0.78881 13.2578 0.75 13.0608 0.75C12.8638 0.75 12.6687 0.78881 12.4867 0.864213C12.3047 0.939617 12.1393 1.05014 12 1.18946L0.439695 12.7498C0.299801 12.8886 0.188889 13.0538 0.113407 13.2358C0.0379246 13.4178 -0.000621974 13.613 7.58902e-06 13.8101V17.9998C7.58902e-06 18.3976 0.158043 18.7791 0.439347 19.0604C0.720652 19.3417 1.10218 19.4998 1.50001 19.4998H5.6897C5.88675 19.5004 6.08197 19.4619 6.26399 19.3864C6.44602 19.3109 6.61123 19.2 6.75001 19.0601L14.5941 11.217L14.9203 12.5201L11.4703 15.9691C11.3296 16.1098 11.2505 16.3005 11.2504 16.4994C11.2503 16.6984 11.3292 16.8892 11.4699 17.0299C11.6105 17.1707 11.8012 17.2498 12.0001 17.2499C12.1991 17.2499 12.3899 17.171 12.5306 17.0304L16.2806 13.2804C16.3724 13.1888 16.4388 13.0751 16.4735 12.9502C16.5081 12.8254 16.5098 12.6936 16.4784 12.5679L15.8316 9.97946L18.3113 7.49977C18.4506 7.36048 18.5611 7.19511 18.6365 7.0131C18.7119 6.83109 18.7507 6.636 18.7507 6.43899C18.7507 6.24198 18.7119 6.0469 18.6365 5.86489C18.5611 5.68288 18.4506 5.5175 18.3113 5.37821ZM1.50001 15.3101L4.1897 17.9998H1.50001V15.3101ZM6.00001 17.6895L1.81032 13.4998L9.75001 5.56009L13.9397 9.74977L6.00001 17.6895ZM15 8.68946L10.8113 4.49977L13.0613 2.24977L17.25 6.43946L15 8.68946Z" fill="#F5B920"/>
</svg>
