<svg width="186" height="61" viewBox="0 0 186 61" fill="none" xmlns="http://www.w3.org/2000/svg">
<path fill-rule="evenodd" clip-rule="evenodd" d="M20.6954 0.573414C15.7362 1.16328 11.9247 2.21561 8.31641 3.99132C6.19947 5.03319 4.54502 6.1422 3.18065 7.43387C1.32124 9.19452 0.489164 10.7165 0.371627 12.5722C0.262258 14.2998 0.721558 14.9241 2.47734 15.435C2.96165 15.5759 3.04741 15.5671 3.28568 15.3515C3.52802 15.1321 3.54423 15.0224 3.46575 14.1358C3.30622 12.3326 3.93015 10.8031 5.44065 9.29409C7.29393 7.44268 10.3244 5.85486 13.5812 5.0291C21.0002 3.14808 28.7219 3.86265 32.5792 6.78708C34.1022 7.94191 34.7973 9.43003 34.7973 11.5364C34.7973 12.1936 34.7334 13.0357 34.6553 13.4078C34.4575 14.35 33.7853 15.7475 33.151 16.5348C31.6987 18.338 28.689 19.8238 25.3351 20.3934C23.524 20.7009 20.0683 20.8825 19.9413 20.6769C19.765 20.3914 20.2863 13.9104 20.8349 9.567L21.1635 6.96451L20.9064 6.70717C20.6573 6.45813 20.5769 6.45417 18.3821 6.5822C16.3309 6.70194 16.0947 6.73972 15.9008 6.97906C15.7083 7.21687 15.6812 7.89621 15.6327 13.6909C15.6029 17.237 15.5447 20.1723 15.5033 20.2136C15.3898 20.3272 12.5791 19.6691 11.0759 19.1769C9.51156 18.6649 9.08582 18.634 8.88048 19.0178C8.66966 19.4117 8.83097 20.3409 9.22991 21.0307C10.5788 23.3634 12.8482 25.4616 14.7442 26.1295C15.1121 26.2591 15.4748 26.4268 15.5502 26.5022C15.6419 26.5939 15.6607 27.1402 15.6073 28.1484C15.5632 28.9782 15.4751 31.6678 15.4114 34.125C15.2873 38.9119 15.1061 40.6703 14.5743 42.2423C14.4082 42.7337 14.1208 43.3343 13.9358 43.5768L13.5996 44.0177H14.6976C16.9223 44.0177 18.547 43.3291 19.1866 42.1149C19.4785 41.561 19.4831 41.4899 19.4831 37.5721C19.4831 35.3831 19.5207 32.1323 19.5666 30.3481L19.6501 27.1043L22.5976 27.098C24.3332 27.0941 25.9647 27.0246 26.5659 26.9287C31.2313 26.1853 34.5214 24.4065 37.2482 21.1535C39.2151 18.8072 40.1851 16.1401 40.191 13.063C40.1974 9.71724 39.2531 7.07786 37.3035 4.99247C35.2111 2.75416 31.9161 1.26399 27.7852 0.687659C26.4904 0.507037 21.8786 0.432745 20.6954 0.573414ZM95.1733 11.8707C93.6675 12.3035 92.766 13.8243 93.1258 15.3246C93.354 16.2761 94.3324 17.2499 95.2602 17.4489C97.0956 17.8426 98.7599 16.5166 98.7599 14.6602C98.7599 13.331 97.8099 12.1294 96.5444 11.8579C95.8181 11.7022 95.7575 11.7027 95.1733 11.8707ZM161.001 13.7332C160.888 14.0324 155.717 27.1685 151.064 38.9756L149.705 42.4221L152.315 42.4567C153.75 42.4757 154.946 42.4694 154.973 42.4426C155.029 42.3861 157.494 35.9416 161.27 25.9787C162.729 22.1303 163.957 18.947 163.999 18.905C164.041 18.8629 164.094 18.8524 164.116 18.8816C164.205 18.9963 168.925 31.5137 168.925 31.6347C168.925 31.7191 167.263 31.7635 164.108 31.7635H159.292L161.521 33.9954L163.75 36.2272L167.249 36.2612L170.748 36.295L171.912 39.3586L173.076 42.4221L175.795 42.4566L178.515 42.4911L178.423 42.2013C178.373 42.042 176.096 36.2535 173.364 29.3382C170.632 22.4228 168.103 16.0037 167.744 15.0735L167.091 13.3822H164.112H161.134L161.001 13.7332ZM180.793 27.9341V42.486H183.218H185.643V27.9341V13.3822H183.218H180.793V27.9341ZM80.2934 20.0214C79.1791 20.5818 78.6498 21.858 78.6531 23.977C78.6563 25.9586 79.035 27.0809 80.0862 28.225L80.4121 28.5798L80.1842 29.9482C79.1773 35.9927 77.2612 39.0571 74.3592 39.264C73.9029 39.2965 73.2823 39.2562 72.98 39.1745C71.8808 38.877 70.9801 37.7059 70.5954 36.0741C70.2819 34.7438 70.3022 34.6744 71.1219 34.2723C74.3423 32.6924 76.5791 29.7987 77.1367 26.4907C77.5573 23.996 76.7068 21.7243 75.0663 20.9602C74.2934 20.6003 72.971 20.5534 71.9704 20.8507C70.013 21.4322 68.1887 23.533 66.9837 26.5938C66.096 28.8487 65.7358 30.9265 65.8463 33.157C66.0085 36.4325 67.2493 39.088 69.4435 40.8561C70.4892 41.6987 71.3449 42.0111 72.7823 42.0749C75.0779 42.1768 76.5707 41.5659 78.3382 39.8011C79.3573 38.7836 79.5121 38.5585 80.2744 36.9846C81.3682 34.726 82.0084 32.7039 82.5986 29.6422C82.6451 29.4019 82.7602 29.3647 83.6416 29.3063C84.1866 29.27 84.6501 29.2561 84.6716 29.2754C84.6932 29.2945 84.5973 29.9053 84.4583 30.6327C84.0366 32.8398 83.891 34.4042 83.8956 36.678C83.9017 39.7171 84.2982 41.1445 85.4979 42.4463C87.4961 44.6146 90.7515 44.0014 93.9258 40.8587C95.3664 39.4324 96.4825 37.529 97.2637 35.1666C98.0526 32.7804 98.1321 32.0152 98.192 26.2427L98.2459 21.041H95.9489H93.6519L93.5927 27.3916C93.545 32.5062 93.4947 33.9159 93.3347 34.6356C92.8841 36.662 92.102 38.3622 91.1445 39.3966C89.8125 40.8355 89.1499 40.8956 88.5897 39.6284C88.0783 38.4719 87.8557 37.1126 87.8451 35.0824C87.8303 32.2261 88.1391 30.7898 89.5481 27.1611C90.6156 24.4119 90.6664 24.1748 90.3437 23.4475C90.0244 22.7278 89.1523 21.9346 88.6805 21.9346C88.2276 21.9346 88.034 22.0731 86.0534 23.8156C84.4803 25.1994 83.3602 26.0021 83.2108 25.8525C83.1723 25.8139 83.2148 24.9426 83.3052 23.9162C83.5339 21.3224 83.2685 20.4211 82.143 19.9706C81.4569 19.696 80.9109 19.7111 80.2934 20.0214ZM127.911 20.7395C123.06 21.7801 119.692 25.5204 119.154 30.4646C118.913 32.6786 119.291 34.8582 120.249 36.7759C121.476 39.2335 123.951 41.4059 126.559 42.313C129.232 43.2429 132.586 43.2386 135.34 42.3018C137.147 41.687 139.325 40.2759 140.292 39.0936L140.717 38.5734L139.186 37.2653L137.655 35.9573L136.859 36.6781C135.959 37.4931 134.436 38.2949 133.191 38.6095C132.195 38.8614 130.209 38.8877 129.231 38.662C127.994 38.3766 126.726 37.6836 125.871 36.8258C125.08 36.0318 124.335 34.7719 124.179 33.9654L124.099 33.5506H132.849H141.599L141.688 32.9529C141.822 32.0589 141.655 29.9195 141.36 28.7638C140.316 24.667 136.966 21.5048 132.829 20.7103C131.634 20.4807 129.046 20.496 127.911 20.7395ZM40.0935 21.0843C38.491 21.6196 36.9303 22.9216 36.0203 24.4826C34.4473 27.1808 33.4187 31.5003 33.5569 34.8271C33.8637 42.2077 39.2626 44.5989 42.474 38.7764C42.7791 38.2231 43.0627 37.7687 43.1043 37.7667C43.1458 37.7646 43.2528 38.0072 43.342 38.3055C43.6148 39.2168 44.2213 40.2962 44.7682 40.8431C46.1135 42.1888 48.2491 42.3175 49.7842 41.1453L50.3668 40.7005L50.3666 41.3061C50.3658 42.7917 50.0917 45.3316 49.8465 46.1256C49.3422 47.7591 48.0634 48.5685 46.5111 48.2368C46.1399 48.1575 45.6222 47.9512 45.3605 47.7784C45.0988 47.6057 44.8598 47.4642 44.8293 47.4642C44.7989 47.4642 44.7355 47.6918 44.6885 47.9701C44.3955 49.7049 46.1046 51.549 48.0055 51.549C49.2531 51.549 50.7256 50.838 51.6475 49.7904C52.8537 48.4196 53.5259 46.4058 53.867 43.1394C53.9724 42.1297 54.0891 41.2732 54.1263 41.236C54.1635 41.1989 54.2947 41.257 54.4179 41.3651C55.1107 41.9727 56.325 42.2584 57.4592 42.0804C59.5893 41.7464 61.6847 39.6774 62.895 36.7132C64.5419 32.6794 64.5634 26.6004 62.9407 23.6991C61.3589 20.8708 58.1683 20.7272 55.644 23.3706C55.2584 23.7743 54.9183 24.1046 54.8882 24.1046C54.8581 24.1046 54.8335 23.9874 54.8335 23.8442C54.8335 23.4052 54.3642 22.6525 53.8959 22.3404C53.1512 21.8441 51.7197 21.4011 51.3343 21.5477C51.1532 21.6166 50.9966 21.6887 50.9864 21.708C50.9763 21.7273 50.8985 24.9311 50.8135 28.8276C50.6398 36.7865 50.6347 36.829 49.717 37.8248C49.131 38.4607 48.6561 38.6915 48.053 38.6338C47.6961 38.5997 47.5796 38.5058 47.3678 38.0821C47.1323 37.6111 47.1134 37.3291 47.1236 34.4441C47.1318 32.1785 47.2052 30.7247 47.3901 29.1682C47.7539 26.1064 47.5808 25.3568 46.4238 24.9858C45.7515 24.77 45.5585 24.549 45.2604 23.6529C44.7225 22.0359 43.381 21.0576 41.5737 20.9641C40.9724 20.9329 40.41 20.9786 40.0935 21.0843ZM100.776 23.2735V25.5059L106.118 25.5392L111.459 25.5726L109.021 28.6378C102.402 36.9593 98.2647 42.1823 98.1777 42.3264C98.1009 42.4535 100.133 42.486 108.171 42.486H118.26V40.2535V38.021L112.72 37.9878L107.18 37.9544L108.807 35.9121C114.424 28.8599 120.391 21.3366 120.474 21.2006C120.552 21.0735 118.56 21.041 110.674 21.041H100.776V23.2735ZM73.7776 24.516C74.0427 24.8945 74.04 26.3946 73.7726 27.3045C73.4495 28.4039 72.6973 29.7292 71.9931 30.4394C71.3407 31.0976 70.5732 31.5935 70.4296 31.4497C70.2926 31.3126 70.641 29.0434 70.9771 27.883C71.6222 25.6564 72.5429 24.2873 73.4266 24.2403C73.5105 24.236 73.6684 24.3599 73.7776 24.516ZM132.298 24.9507C133.952 25.4154 135.422 26.6546 136.169 28.213C136.415 28.7265 136.651 29.3047 136.693 29.4977L136.77 29.8488H130.397H124.023L124.155 29.3701C124.377 28.5649 124.97 27.5106 125.588 26.8234C127.29 24.9295 129.765 24.2388 132.298 24.9507ZM42.0461 25.6889C42.2356 25.7879 42.5571 26.044 42.7605 26.258L43.1302 26.6471L42.9736 27.8331C42.7473 29.5454 42.0117 32.909 41.5572 34.3097C40.6278 37.1731 39.1102 39.0295 37.939 38.7355C36.7947 38.4482 36.9312 34.0216 38.2072 30.0403C39.3583 26.4486 40.6651 24.9673 42.0461 25.6889ZM58.6178 26.5899C59.0083 26.8635 59.435 27.86 59.6307 28.9552C60.2703 32.5351 58.9993 37.7041 57.2115 38.7945C56.6833 39.1167 55.8549 39.1132 55.4403 38.787C55.0282 38.4627 54.6412 37.6344 54.4519 36.672C54.2423 35.6064 54.5868 30.6121 54.9404 29.5874C55.4348 28.155 56.128 27.1315 56.9392 26.6368C57.4004 26.3554 58.2493 26.3317 58.6178 26.5899ZM142.635 40.0606V42.486H145.06H147.485V40.0606V37.6353H145.06H142.635V40.0606ZM13.3574 48.1025V49.5066H27.7145H42.0716V48.1025V46.6984H27.7145H13.3574V48.1025ZM55.8544 48.1025V49.5066H120.749H185.643V48.1025V46.6984H120.749H55.8544V48.1025ZM13.3574 53.3361C13.3574 53.5652 13.4425 53.5914 14.1869 53.5914H15.0164V56.2081C15.0164 58.4491 15.0438 58.8249 15.2078 58.8249C15.3718 58.8249 15.3993 58.4491 15.3993 56.2081V53.5914H16.2288C16.9732 53.5914 17.0583 53.5652 17.0583 53.3361C17.0583 53.0925 16.9732 53.0808 15.2078 53.0808C13.4425 53.0808 13.3574 53.0925 13.3574 53.3361ZM35.6508 53.34C35.4418 53.5044 35.2825 53.7964 35.2154 54.1378C35.1252 54.5972 35.0586 54.6822 34.7621 54.7167C34.2741 54.7735 34.3045 55.1231 34.7973 55.1231H35.1802V56.974C35.1802 58.5188 35.2113 58.8249 35.3682 58.8249C35.5231 58.8249 35.5623 58.5066 35.5915 57.006L35.6268 55.187L36.1692 55.1478C36.902 55.0947 36.9363 54.7402 36.2086 54.7402C35.932 54.7402 35.6798 54.6972 35.6482 54.6445C35.6166 54.5917 35.6563 54.3496 35.7363 54.1063C35.847 53.7702 35.9819 53.6353 36.2968 53.5453C36.525 53.4801 36.7116 53.349 36.7116 53.2537C36.7116 52.9881 36.0274 53.0437 35.6508 53.34ZM68.6163 55.9529C68.6163 58.7398 68.6238 58.8249 68.8715 58.8249C69.1067 58.8249 69.1268 58.7398 69.1268 57.7399V56.6549L70.1158 56.6544C71.6498 56.6536 72.3746 56.074 72.3563 54.8621C72.3376 53.6173 71.537 53.0808 69.6985 53.0808H68.6163V55.9529ZM112.39 55.9384V58.8249H113.657C115.102 58.8249 115.363 58.7522 116.033 58.1645C117.504 56.8726 117.238 54.3232 115.541 53.4375C115.122 53.2189 114.722 53.1469 113.698 53.1051L112.39 53.0518V55.9384ZM135.589 55.953C135.555 58.6173 135.569 58.8252 135.776 58.8251C135.982 58.8249 135.999 58.6031 135.999 55.9529C135.999 53.5168 135.971 53.0808 135.812 53.0808C135.655 53.0808 135.62 53.5335 135.589 55.953ZM140.21 55.9529C140.21 58.7398 140.218 58.8249 140.466 58.8249C140.713 58.8249 140.721 58.7398 140.721 55.9529C140.721 53.1659 140.713 53.0808 140.466 53.0808C140.218 53.0808 140.21 53.1659 140.21 55.9529ZM155.525 55.9529C155.525 58.7398 155.532 58.8249 155.78 58.8249C156.028 58.8249 156.035 58.7398 156.035 55.9529C156.035 53.1659 156.028 53.0808 155.78 53.0808C155.532 53.0808 155.525 53.1659 155.525 55.9529ZM157.567 55.9529C157.567 58.4207 157.594 58.8249 157.758 58.8249C157.923 58.8249 157.949 58.4207 157.949 55.9529C157.949 53.485 157.923 53.0808 157.758 53.0808C157.594 53.0808 157.567 53.485 157.567 55.9529ZM54.5674 53.4129C54.4541 53.5495 54.4491 53.6409 54.5495 53.7413C54.7258 53.9176 55.0887 53.7856 55.0887 53.5452C55.0887 53.2793 54.7498 53.1932 54.5674 53.4129ZM95.0425 53.3304C94.8311 53.4612 94.9542 53.8467 95.2072 53.8467C95.3072 53.8467 95.4203 53.7647 95.4589 53.6645C95.5514 53.4231 95.2647 53.1931 95.0425 53.3304ZM118.887 53.4129C118.774 53.5495 118.769 53.6409 118.869 53.7413C119.046 53.9176 119.409 53.7856 119.409 53.5452C119.409 53.2793 119.07 53.1932 118.887 53.4129ZM126.313 53.3278C126.096 53.4622 126.219 53.8467 126.48 53.8467C126.76 53.8467 126.865 53.591 126.666 53.3922C126.556 53.2826 126.425 53.2586 126.313 53.3278ZM159.725 53.4129C159.612 53.5495 159.607 53.6409 159.707 53.7413C159.884 53.9176 160.247 53.7856 160.247 53.5452C160.247 53.2793 159.908 53.1932 159.725 53.4129ZM71.5777 54.0896C71.9123 54.4642 71.9539 54.5903 71.8928 55.0453C71.7749 55.9254 70.9341 56.3738 69.6339 56.2503L69.1906 56.2081L69.1541 54.886L69.1176 53.5639L70.1549 53.611C71.1473 53.6561 71.209 53.6769 71.5777 54.0896ZM115.029 53.7272C115.886 54.0508 116.485 54.937 116.493 55.8899C116.5 56.7583 116.276 57.3433 115.767 57.7903C115.244 58.2498 114.619 58.4403 113.634 58.4412L112.9 58.442V56.0167V53.5914H113.785C114.272 53.5914 114.832 53.6525 115.029 53.7272ZM101.646 54.2615C101.612 54.6072 101.547 54.6831 101.255 54.7167C101.062 54.7389 100.904 54.8357 100.904 54.9317C100.904 55.0277 101.062 55.1244 101.255 55.1466L101.606 55.187L101.67 56.8105C101.741 58.6253 101.81 58.7809 102.604 58.9097C103.018 58.977 103.073 58.9548 103.073 58.7224C103.073 58.5305 102.979 58.448 102.725 58.4185C102.186 58.356 102.047 57.9309 102.084 56.4634L102.116 55.187L102.595 55.1474C102.897 55.1222 103.073 55.043 103.073 54.9317C103.073 54.8204 102.897 54.7411 102.595 54.7159C102.158 54.6798 102.113 54.6402 102.076 54.2615C102.052 54.0143 101.965 53.8467 101.861 53.8467C101.757 53.8467 101.67 54.0143 101.646 54.2615ZM128.087 54.2934C128.087 54.6849 128.047 54.7402 127.768 54.7402C127.569 54.7402 127.449 54.8126 127.449 54.9317C127.449 55.0486 127.568 55.1231 127.754 55.1231C128.059 55.1231 128.061 55.1321 128.105 56.7298C128.15 58.3077 128.157 58.342 128.509 58.6446C128.964 59.0366 129.618 59.0677 129.618 58.6973C129.618 58.5121 129.533 58.442 129.308 58.442C128.701 58.442 128.597 58.1692 128.597 56.582V55.1231H129.108C129.797 55.1231 129.824 54.7726 129.14 54.7159C128.703 54.6798 128.658 54.6402 128.621 54.2615C128.591 53.9501 128.519 53.8467 128.334 53.8467C128.136 53.8467 128.087 53.9366 128.087 54.2934ZM147.612 54.2934C147.612 54.6849 147.573 54.7402 147.293 54.7402C147.095 54.7402 146.974 54.8126 146.974 54.9317C146.974 55.0482 147.093 55.1231 147.278 55.1231C147.579 55.1231 147.582 55.1376 147.635 56.7352C147.688 58.3069 147.698 58.3549 148.041 58.6499C148.49 59.037 149.144 59.065 149.144 58.6973C149.144 58.5121 149.059 58.442 148.834 58.442C148.227 58.442 148.123 58.1692 148.123 56.582V55.1231H148.633C149.322 55.1231 149.35 54.7726 148.665 54.7159C148.228 54.6798 148.183 54.6402 148.147 54.2615C148.117 53.9501 148.045 53.8467 147.86 53.8467C147.662 53.8467 147.612 53.9366 147.612 54.2934ZM19.0409 55.0088L18.5897 55.4049V55.0726C18.5897 54.8253 18.5244 54.7402 18.3345 54.7402C18.09 54.7402 18.0793 54.8253 18.0793 56.775C18.0793 57.8943 18.1251 58.8382 18.1811 58.8728C18.463 59.047 18.5683 58.669 18.6095 57.335C18.6495 56.0417 18.6817 55.8788 18.9568 55.5865C19.1234 55.4091 19.425 55.2278 19.6268 55.1834C19.8755 55.1288 19.9935 55.024 19.9935 54.8578C19.9935 54.4851 19.5584 54.5542 19.0409 55.0088ZM21.8274 54.7964C21.3414 55.0079 21.1767 55.2421 21.4116 55.3872C21.5188 55.4536 21.7007 55.4203 21.8825 55.3011C22.0455 55.1942 22.4164 55.1036 22.7067 55.0997C23.1259 55.0939 23.2949 55.1626 23.5283 55.434C23.6899 55.6219 23.8221 55.9075 23.8221 56.0689C23.8221 56.3413 23.7546 56.3678 22.8767 56.4421C21.7427 56.538 21.3112 56.715 21.0687 57.184C20.847 57.6127 20.8414 57.8196 21.0394 58.2541C21.355 58.9468 22.7006 59.2055 23.3465 58.6973C23.7348 58.3918 23.8221 58.3801 23.8221 58.6335C23.8221 58.743 23.937 58.8249 24.0905 58.8249C24.3515 58.8249 24.3573 58.7822 24.3058 57.2612C24.2475 55.5428 24.1063 55.0831 23.5484 54.7944C23.1095 54.5674 22.3515 54.5683 21.8274 54.7964ZM26.7225 54.8678C26.3341 55.1733 26.2469 55.185 26.2469 54.9317C26.2469 54.8264 26.1464 54.7403 26.0235 54.7403C25.8234 54.7404 25.796 54.9263 25.7592 56.5261C25.716 58.4189 25.7698 58.8249 26.064 58.8249C26.2106 58.8249 26.2469 58.5708 26.2469 57.5444C26.2469 55.625 26.5373 55.1231 27.6481 55.1231C28.0349 55.1231 28.2549 55.2055 28.4859 55.4365C28.7839 55.7344 28.7992 55.8251 28.7992 57.2874C28.7992 58.7398 28.8134 58.8249 29.0545 58.8249C29.2943 58.8249 29.3097 58.7398 29.3097 57.4167C29.3097 55.8507 29.1643 55.3285 28.606 54.8893C28.1366 54.52 27.1785 54.509 26.7225 54.8678ZM31.1062 54.943C30.791 55.2083 30.7135 55.3719 30.7135 55.7727C30.7135 56.4221 31.0129 56.7149 31.9528 56.9844C32.8366 57.2379 33.0107 57.3616 33.0107 57.7357C33.0107 58.4311 31.9111 58.715 31.2139 58.1995C30.5165 57.6838 30.3081 58.0579 30.9786 58.6221C31.6769 59.2099 33.028 59.0019 33.3686 58.2541C33.4525 58.07 33.5211 57.8027 33.5211 57.6603C33.5211 57.2422 32.8506 56.6732 32.2439 56.5762C31.9477 56.5288 31.554 56.3581 31.369 56.1969C31.0479 55.9174 31.0415 55.8875 31.2281 55.5454C31.3866 55.2547 31.5243 55.1796 31.9564 55.148C32.3815 55.1169 32.5223 55.1621 32.6529 55.3714C32.8389 55.6691 33.2659 55.7264 33.2659 55.4536C33.2659 55.1091 32.5126 54.6125 31.9897 54.6125C31.6478 54.6125 31.3797 54.7129 31.1062 54.943ZM38.8109 54.785C37.9126 55.1927 37.3521 56.3542 37.6034 57.2874C38.0955 59.1155 40.3441 59.5594 41.4621 58.0492C42.1711 57.0913 41.917 55.7186 40.8886 54.9506C40.4608 54.6311 39.3459 54.5422 38.8109 54.785ZM44.0541 55.0088L43.603 55.4049V55.0726C43.603 54.8253 43.5377 54.7402 43.3478 54.7402C43.1031 54.7402 43.0925 54.8253 43.0925 56.7826C43.0925 58.7398 43.1031 58.8249 43.3478 58.8249C43.5851 58.8249 43.603 58.7398 43.603 57.6082C43.603 56.8454 43.6707 56.2295 43.7844 55.9572C43.9603 55.5359 44.5307 55.1231 44.9366 55.1231C45.0493 55.1231 45.1344 55.0134 45.1344 54.8678C45.1344 54.4738 44.5811 54.5459 44.0541 55.0088ZM47.2082 54.7683C47.0503 54.8445 46.9211 54.9555 46.9211 55.015C46.9211 55.0745 46.8637 55.1231 46.7935 55.1231C46.7233 55.1231 46.6659 55.037 46.6659 54.9317C46.6659 54.8264 46.5797 54.7402 46.4744 54.7402C46.3122 54.7402 46.283 55.0522 46.283 56.7826C46.283 58.4444 46.3162 58.8249 46.461 58.8249C46.6008 58.8249 46.6488 58.498 46.6844 57.3034C46.7261 55.9012 46.7539 55.756 47.039 55.4525C47.2608 55.2163 47.4776 55.1237 47.8047 55.1251C48.6868 55.1289 48.8354 55.4494 48.8354 57.3486C48.8354 58.7398 48.8501 58.8249 49.0906 58.8249C49.3304 58.8249 49.3459 58.7398 49.3459 57.4144C49.3459 55.5052 49.5465 55.1231 50.5489 55.1231C51.3053 55.1231 51.4457 55.4378 51.4939 57.2424C51.533 58.7026 51.5551 58.8249 51.7811 58.8249C52.0065 58.8249 52.0259 58.7215 52.0251 57.5165C52.0243 55.9269 51.8831 55.3681 51.3742 54.9398C50.8114 54.4663 50.1303 54.4918 49.5418 55.0088C49.2937 55.2267 49.0906 55.3407 49.0906 55.2621C49.0906 55.0329 48.2954 54.6128 47.8782 54.6216C47.6677 54.6262 47.3662 54.6922 47.2082 54.7683ZM56.4577 54.8678C56.0693 55.1733 55.982 55.185 55.982 54.9317C55.982 54.8253 55.8686 54.7402 55.7268 54.7402C55.4822 54.7402 55.4716 54.8253 55.4716 56.7826C55.4716 58.7398 55.4822 58.8249 55.7268 58.8249C55.966 58.8249 55.982 58.7398 55.982 57.4783C55.982 55.6249 56.2634 55.1231 57.3032 55.1231C58.337 55.1231 58.5344 55.4906 58.5344 57.4144C58.5344 58.7398 58.5499 58.8249 58.7897 58.8249C59.0295 58.8249 59.0449 58.7398 59.0449 57.4167C59.0449 55.7812 58.8809 55.2528 58.2549 54.8712C57.7021 54.5339 56.8839 54.5324 56.4577 54.8678ZM61.2618 54.9309C59.6525 55.8958 60.2046 58.5524 62.046 58.7043C62.7919 58.766 63.1141 58.6931 63.4883 58.3782C63.6969 58.2027 63.9096 58.059 63.961 58.059C64.1103 58.059 63.9008 59.1146 63.6866 59.442C63.2441 60.1183 61.8812 60.2706 61.1835 59.7215C60.794 59.4152 60.423 59.5713 60.7121 59.92C61.2006 60.5091 62.7402 60.6815 63.4808 60.2297C64.3145 59.7213 64.4039 59.4032 64.4044 56.9421C64.4048 55.0698 64.3763 54.7402 64.2135 54.7402C64.1071 54.7402 64.022 54.8537 64.022 54.9955C64.022 55.3187 64.0026 55.3165 63.4356 54.9317C62.802 54.5016 61.9783 54.5012 61.2618 54.9309ZM73.8806 54.8664C73.6524 55.0056 73.4658 55.1743 73.4658 55.2413C73.4658 55.4794 73.7245 55.5181 74.0045 55.322C74.1621 55.2116 74.5507 55.1231 74.8783 55.1231C75.5469 55.1231 75.8408 55.3532 75.9649 55.9734L76.0422 56.3602L75.0528 56.4438C74.4706 56.4931 73.9024 56.6215 73.6722 56.756C72.9125 57.1997 72.9474 58.3609 73.7327 58.7671C74.2585 59.039 75.1521 59.0045 75.5426 58.6973C75.9309 58.3918 76.0182 58.3801 76.0182 58.6335C76.0182 58.7388 76.123 58.8249 76.251 58.8249C76.4652 58.8249 76.4812 58.7016 76.4522 57.2795C76.4171 55.56 76.2791 55.0709 75.7514 54.798C75.241 54.534 74.3736 54.5658 73.8806 54.8664ZM79.0351 54.9278C78.5946 55.2268 78.5706 55.2301 78.5706 54.9917C78.5706 54.8253 78.4842 54.7402 78.3153 54.7402C78.0676 54.7402 78.0601 54.8253 78.0601 57.6123C78.0601 60.3992 78.0676 60.4844 78.3153 60.4844C78.5505 60.4844 78.5706 60.3992 78.5706 59.4032V58.322L79.0491 58.6489C79.4542 58.9255 79.6368 58.9682 80.2379 58.9259C81.4509 58.8405 82.1882 58.0283 82.1915 56.7739C82.1958 55.0847 80.3738 54.0191 79.0351 54.9278ZM84.3772 54.7916C83.8974 55.0034 83.6122 55.3206 83.3611 55.9214C82.7659 57.3464 83.7925 58.9447 85.3066 58.9505C85.9278 58.9528 86.5877 58.7136 86.8576 58.3883C87.1215 58.0699 86.7966 57.8872 86.4134 58.1384C85.584 58.6818 84.6978 58.5767 84.0686 57.86C83.3813 57.0771 83.4477 57.0379 85.462 57.0379H87.2487V56.7378C87.2487 56.2831 86.99 55.6054 86.6885 55.2706C86.1088 54.6265 85.1849 54.435 84.3772 54.7916ZM89.5777 54.8664C89.3495 55.0056 89.1629 55.1811 89.1629 55.2564C89.1629 55.3318 89.1055 55.358 89.0353 55.3146C88.9651 55.2712 88.9077 55.1243 88.9077 54.988C88.9077 54.8516 88.8216 54.7402 88.7163 54.7402C88.5541 54.7402 88.5248 55.0522 88.5248 56.7826C88.5248 58.426 88.5589 58.8249 88.6996 58.8249C88.8319 58.8249 88.8895 58.5081 88.9372 57.5165C88.9719 56.797 89.0704 56.0597 89.1563 55.8782C89.3226 55.5264 89.899 55.1231 90.2355 55.1231C90.354 55.1231 90.4391 55.0164 90.4391 54.8678C90.4391 54.5388 90.116 54.5383 89.5777 54.8664ZM97.1681 54.8678C96.7797 55.1733 96.6925 55.185 96.6925 54.9317C96.6925 54.8253 96.579 54.7402 96.4372 54.7402C96.1926 54.7402 96.182 54.8253 96.182 56.7826C96.182 58.7398 96.1926 58.8249 96.4372 58.8249C96.6764 58.8249 96.6925 58.7398 96.6925 57.4783C96.6925 55.594 96.9686 55.1231 98.0737 55.1231C98.3802 55.1231 98.6968 55.2189 98.8797 55.3668C99.1628 55.5958 99.1836 55.7081 99.2234 57.2177C99.2624 58.7024 99.2843 58.8249 99.5105 58.8249C99.7371 58.8249 99.7553 58.7199 99.7553 57.4167C99.7553 55.7812 99.5913 55.2528 98.9653 54.8712C98.4125 54.5339 97.5943 54.5324 97.1681 54.8678ZM105.498 54.7559C104.69 55.0783 104.222 55.8354 104.222 56.8211C104.222 58.032 105.115 58.9526 106.289 58.9526C107.336 58.9526 108.158 58.3147 108.435 57.2874C108.878 55.6407 107.107 54.1142 105.498 54.7559ZM121.066 54.8998C120.093 55.5621 119.801 56.5782 120.293 57.593C120.879 58.804 122.36 59.1326 123.431 58.2895L123.786 58.01L123.718 58.6169C123.675 59.0003 123.543 59.3369 123.361 59.5312C122.765 60.1655 121.7 60.2434 121.013 59.7028C120.744 59.491 120.64 59.4692 120.491 59.5929C120.248 59.7942 120.339 59.9226 120.944 60.2309C122.069 60.8049 123.506 60.4255 123.989 59.4272C124.229 58.9328 124.258 58.6456 124.258 56.8061C124.258 54.8253 124.248 54.7402 124.003 54.7402C123.833 54.7402 123.748 54.8253 123.748 54.9955C123.748 55.3187 123.728 55.3165 123.161 54.9317C122.539 54.509 121.66 54.4956 121.066 54.8998ZM131.58 54.7964C131.36 54.8921 131.137 55.0398 131.085 55.1248C130.924 55.3857 131.301 55.5005 131.678 55.3053C131.872 55.2051 132.259 55.1231 132.538 55.1231C132.934 55.1231 133.103 55.1968 133.31 55.4595C133.455 55.6445 133.574 55.9232 133.574 56.079C133.574 56.3387 133.496 56.3687 132.629 56.4421C131.495 56.538 131.063 56.715 130.821 57.184C130.599 57.6127 130.594 57.8196 130.792 58.2541C131.107 58.9468 132.453 59.2055 133.099 58.6973C133.487 58.3918 133.574 58.3801 133.574 58.6335C133.574 58.7434 133.689 58.8249 133.845 58.8249C134.109 58.8249 134.114 58.7866 134.062 57.1974C134.006 55.4338 133.876 55.0463 133.247 54.7598C132.819 54.5648 132.074 54.5811 131.58 54.7964ZM143.178 54.8825C142.823 55.1095 142.763 55.1184 142.763 54.9442C142.763 54.8253 142.656 54.7402 142.508 54.7402C142.263 54.7402 142.252 54.8253 142.252 56.7826C142.252 58.7398 142.263 58.8249 142.508 58.8249C142.748 58.8249 142.763 58.7398 142.763 57.3472C142.763 55.884 142.767 55.8657 143.136 55.4963C143.645 54.9866 144.485 54.9661 144.942 55.4522C145.228 55.7559 145.255 55.8982 145.294 57.3031C145.334 58.7312 145.352 58.8249 145.595 58.8249C145.842 58.8249 145.85 58.7618 145.802 57.3251C145.746 55.6469 145.57 55.1339 144.937 54.8062C144.413 54.5356 143.669 54.5679 143.178 54.8825ZM151.332 54.829C150.49 55.244 149.999 56.4534 150.295 57.3806C150.6 58.335 151.426 58.9526 152.398 58.9526C153.275 58.9526 154.228 58.3705 153.896 58.038C153.797 57.9392 153.645 57.9802 153.361 58.1826C152.867 58.5342 151.979 58.5731 151.507 58.2637C151.198 58.061 150.677 57.3529 150.676 57.1336C150.675 57.0809 151.479 57.0379 152.462 57.0379H154.249V56.6111C154.249 55.9934 153.747 55.1285 153.226 54.8493C152.683 54.5578 151.9 54.5494 151.332 54.829ZM162.271 54.888C161.055 55.5928 160.928 57.5288 162.043 58.3456C162.774 58.8807 163.94 58.8608 164.534 58.3032C164.702 58.145 164.875 58.0501 164.917 58.0925C165.058 58.2338 164.823 59.1961 164.568 59.5201C164.086 60.1337 162.886 60.2289 162.154 59.7116C161.738 59.4176 161.37 59.5722 161.659 59.92C162.167 60.5332 163.735 60.688 164.464 60.1968C165.323 59.6179 165.385 59.3537 165.363 56.3677C165.353 55.0114 165.319 54.7402 165.16 54.7402C165.054 54.7402 164.969 54.8537 164.969 54.9955C164.969 55.3187 164.949 55.3165 164.382 54.9317C163.781 54.5236 162.929 54.506 162.271 54.888ZM167.795 54.8219C167.119 55.1665 166.696 55.917 166.696 56.7706C166.696 57.6518 167.039 58.2676 167.755 58.6702C168.59 59.1395 169.811 59.0022 170.326 58.3812C170.624 58.0216 170.284 57.8552 169.86 58.1529C169.401 58.4745 168.876 58.5708 168.359 58.4281C167.905 58.3026 167.339 57.7611 167.208 57.3251L167.121 57.0379H168.916H170.711V56.6508C170.711 56.1065 170.427 55.5056 169.964 55.07C169.463 54.5984 168.459 54.4835 167.795 54.8219ZM172.913 54.8664C172.574 55.0728 172.498 55.0845 172.498 54.9298C172.498 54.8253 172.383 54.7402 172.243 54.7402C171.998 54.7402 171.988 54.8253 171.988 56.7689C171.988 58.3916 172.023 58.8114 172.166 58.8663C172.265 58.9041 172.38 58.9006 172.422 58.8586C172.464 58.8168 172.498 58.1358 172.498 57.3455C172.498 55.9803 172.515 55.8888 172.834 55.5098C173.139 55.1471 173.227 55.1143 173.81 55.1489C174.801 55.2078 174.975 55.5238 175.029 57.3659C175.064 58.5557 175.108 58.8249 175.263 58.8249C175.424 58.8249 175.447 58.5699 175.411 57.1554L175.369 55.4858L174.893 55.0492C174.506 54.6946 174.314 54.6127 173.872 54.6131C173.555 54.6133 173.155 54.719 172.913 54.8664ZM177.854 54.8723C177.228 55.2462 176.81 55.9072 176.744 56.6268C176.596 58.2533 178.349 59.4582 179.837 58.752C180.419 58.4757 180.752 58.0943 180.57 57.912C180.467 57.809 180.336 57.8437 180.086 58.0407C178.949 58.935 177.409 58.3714 177.255 57.0049C177.137 55.9597 177.841 55.1231 178.839 55.1231C179.424 55.1231 180.095 55.388 180.183 55.654C180.242 55.8293 180.666 55.7084 180.666 55.5166C180.666 55.4478 180.459 55.2338 180.206 55.0412C179.578 54.5619 178.504 54.4848 177.854 54.8723ZM182.735 54.8248C182.22 55.0791 181.886 55.533 181.696 56.2365C181.329 57.6012 182.368 58.9526 183.784 58.9526C184.664 58.9526 185.624 58.3722 185.292 58.0405C185.197 57.9453 185.046 57.9878 184.78 58.1843C184.516 58.3798 184.22 58.4633 183.791 58.4633C183.074 58.4633 182.622 58.1848 182.293 57.5394L182.07 57.1017L183.856 57.0663L185.643 57.0308V56.6077C185.643 55.9931 185.14 55.1279 184.621 54.8493C184.08 54.5593 183.295 54.5491 182.735 54.8248ZM53.5573 56.7826C53.5573 58.513 53.5865 58.8249 53.7487 58.8249C53.9109 58.8249 53.9401 58.513 53.9401 56.7826C53.9401 55.0522 53.9109 54.7402 53.7487 54.7402C53.5865 54.7402 53.5573 55.0522 53.5573 56.7826ZM94.2677 56.7826C94.2677 58.513 94.2969 58.8249 94.4591 58.8249C94.6213 58.8249 94.6506 58.513 94.6506 56.7826C94.6506 55.0522 94.6213 54.7402 94.4591 54.7402C94.2969 54.7402 94.2677 55.0522 94.2677 56.7826ZM118.388 56.7826C118.388 58.513 118.417 58.8249 118.579 58.8249C118.741 58.8249 118.771 58.513 118.771 56.7826C118.771 55.0522 118.741 54.7402 118.579 54.7402C118.417 54.7402 118.388 55.0522 118.388 56.7826ZM125.79 56.7676C125.79 58.6878 125.803 58.7986 126.045 58.862C126.292 58.9267 126.3 58.8658 126.3 56.8344C126.3 54.8253 126.29 54.7402 126.045 54.7402C125.8 54.7402 125.79 54.8253 125.79 56.7676ZM159.481 56.7826C159.481 58.7398 159.492 58.8249 159.736 58.8249C159.981 58.8249 159.991 58.7398 159.991 56.7826C159.991 54.8253 159.981 54.7402 159.736 54.7402C159.492 54.7402 159.481 54.8253 159.481 56.7826ZM40.7594 55.4619C41.3074 55.8705 41.5302 56.5944 41.322 57.2898C40.8503 58.8644 38.5697 58.8602 38.0975 57.2837C37.6116 55.6616 39.3925 54.4428 40.7594 55.4619ZM164.411 55.5218C165.277 56.3357 164.977 57.8258 163.873 58.1901C162.556 58.6249 161.297 57.3547 161.82 56.1192C162.276 55.0398 163.578 54.7396 164.411 55.5218ZM63.3183 55.3999C64.1001 56.0149 64.1818 57.1137 63.4967 57.7989C62.2743 59.0218 60.2135 57.693 60.8753 56.1087C61.1487 55.4544 61.6487 55.1231 62.363 55.1231C62.789 55.1231 63.0701 55.2046 63.3183 55.3999ZM81.1047 55.4465C82.5009 56.6215 81.3212 58.9652 79.6165 58.4029C78.4248 58.01 78.1841 56.0596 79.2364 55.3224C79.6966 55 80.6494 55.0633 81.1047 55.4465ZM86.0724 55.3224C86.3549 55.5203 86.7382 56.1368 86.7382 56.3932C86.7382 56.4794 86.191 56.5273 85.2068 56.5273C84.2226 56.5273 83.6753 56.4794 83.6753 56.3932C83.6753 56.094 84.0828 55.5009 84.4108 55.3229C84.871 55.0732 85.7163 55.0728 86.0724 55.3224ZM107.4 55.4517C107.925 55.8936 108.14 56.6197 107.941 57.2837C107.597 58.4297 106.254 58.8456 105.279 58.1077C104.6 57.594 104.46 56.5643 104.962 55.7878C105.432 55.0619 106.725 54.8837 107.4 55.4517ZM122.986 55.3168C124.079 55.8818 123.941 57.6501 122.767 58.1409C122.13 58.4073 121.507 58.2683 120.981 57.7426C120.316 57.0771 120.4 56.0667 121.175 55.411C121.581 55.0681 122.421 55.0245 122.986 55.3168ZM153.072 55.3224C153.355 55.5203 153.738 56.1368 153.738 56.3932C153.738 56.4794 153.191 56.5273 152.207 56.5273C151.364 56.5273 150.675 56.4957 150.675 56.4571C150.675 56.25 151.097 55.6216 151.392 55.3897C151.801 55.0674 152.659 55.033 153.072 55.3224ZM169.535 55.3224C169.818 55.5203 170.201 56.1368 170.201 56.3932C170.201 56.4794 169.651 56.5273 168.661 56.5273C167.122 56.5273 167.121 56.527 167.212 56.2401C167.339 55.839 167.666 55.4181 167.968 55.2676C168.362 55.0712 169.219 55.1011 169.535 55.3224ZM184.467 55.3224C184.749 55.5203 185.132 56.1368 185.132 56.3932C185.132 56.4794 184.587 56.5273 183.608 56.5273H182.083L182.216 56.1455C182.425 55.5462 183.017 55.1231 183.646 55.1231C183.941 55.1231 184.31 55.2127 184.467 55.3224ZM23.8221 57.303C23.8221 58.2458 22.341 58.862 21.6207 58.2189C21.2073 57.8498 21.4193 57.2274 22.0354 57.0007C22.1407 56.962 22.5859 56.9258 23.0245 56.9203L23.8221 56.9102V57.303ZM76.0182 57.303C76.0182 58.2458 74.5371 58.862 73.8168 58.2189C73.4034 57.8498 73.6154 57.2274 74.2315 57.0007C74.3368 56.962 74.782 56.9258 75.2206 56.9203L76.0182 56.9102V57.303ZM133.574 57.2759C133.574 57.7856 133.14 58.284 132.56 58.4402C131.273 58.7869 130.557 57.4534 131.788 57.0007C131.893 56.962 132.338 56.9258 132.777 56.9203C133.572 56.9102 133.574 56.9114 133.574 57.2759Z" fill="black"/>
</svg>
