<svg width="20" height="21" viewBox="0 0 20 21" fill="none" xmlns="http://www.w3.org/2000/svg">
<path d="M10 0.75C8.07164 0.75 6.18657 1.32183 4.58319 2.39317C2.97982 3.46451 1.73013 4.98726 0.992179 6.76884C0.254225 8.55042 0.061142 10.5108 0.437348 12.4021C0.813554 14.2934 1.74215 16.0307 3.10571 17.3943C4.46928 18.7579 6.20656 19.6865 8.09787 20.0627C9.98919 20.4389 11.9496 20.2458 13.7312 19.5078C15.5127 18.7699 17.0355 17.5202 18.1068 15.9168C19.1782 14.3134 19.75 12.4284 19.75 10.5C19.7473 7.91498 18.7192 5.43661 16.8913 3.60872C15.0634 1.78084 12.585 0.75273 10 0.75ZM4.75 10.5C4.75 10.6989 4.67099 10.8897 4.53033 11.0303C4.38968 11.171 4.19892 11.25 4 11.25C3.80109 11.25 3.61033 11.171 3.46967 11.0303C3.32902 10.8897 3.25 10.6989 3.25 10.5C3.25199 8.7104 3.96379 6.99466 5.22923 5.72922C6.49467 4.46378 8.2104 3.75199 10 3.75C10.1989 3.75 10.3897 3.82902 10.5303 3.96967C10.671 4.11032 10.75 4.30109 10.75 4.5C10.75 4.69891 10.671 4.88968 10.5303 5.03033C10.3897 5.17098 10.1989 5.25 10 5.25C8.60808 5.25149 7.27358 5.80509 6.28934 6.78933C5.30509 7.77358 4.75149 9.10807 4.75 10.5ZM7.75 10.5C7.75 10.055 7.88196 9.61998 8.1292 9.24997C8.37643 8.87996 8.72783 8.59157 9.13897 8.42127C9.5501 8.25097 10.0025 8.20642 10.439 8.29323C10.8754 8.38005 11.2763 8.59434 11.591 8.90901C11.9057 9.22368 12.12 9.62459 12.2068 10.061C12.2936 10.4975 12.249 10.9499 12.0787 11.361C11.9084 11.7722 11.62 12.1236 11.25 12.3708C10.88 12.618 10.445 12.75 10 12.75C9.40327 12.75 8.83097 12.5129 8.40901 12.091C7.98706 11.669 7.75 11.0967 7.75 10.5ZM10 17.25C9.80109 17.25 9.61033 17.171 9.46967 17.0303C9.32902 16.8897 9.25 16.6989 9.25 16.5C9.25 16.3011 9.32902 16.1103 9.46967 15.9697C9.61033 15.829 9.80109 15.75 10 15.75C11.3919 15.7485 12.7264 15.1949 13.7107 14.2107C14.6949 13.2264 15.2485 11.8919 15.25 10.5C15.25 10.3011 15.329 10.1103 15.4697 9.96967C15.6103 9.82902 15.8011 9.75 16 9.75C16.1989 9.75 16.3897 9.82902 16.5303 9.96967C16.671 10.1103 16.75 10.3011 16.75 10.5C16.748 12.2896 16.0362 14.0053 14.7708 15.2708C13.5053 16.5362 11.7896 17.248 10 17.25Z" fill="#2275F2"/>
</svg>
