<svg width="24" height="25" viewBox="0 0 24 25" fill="none" xmlns="http://www.w3.org/2000/svg">
<path d="M17.25 7.25H3.75C2.92157 7.25 2.25 7.92157 2.25 8.75V19.25C2.25 20.0784 2.92157 20.75 3.75 20.75H17.25C18.0784 20.75 18.75 20.0784 18.75 19.25V8.75C18.75 7.92157 18.0784 7.25 17.25 7.25Z" fill="#F26522"/>
<path d="M20.25 4.25H6C5.80109 4.25 5.61032 4.32902 5.46967 4.46967C5.32902 4.61032 5.25 4.80109 5.25 5C5.25 5.19891 5.32902 5.38968 5.46967 5.53033C5.61032 5.67098 5.80109 5.75 6 5.75H20.25V17C20.25 17.1989 20.329 17.3897 20.4697 17.5303C20.6103 17.671 20.8011 17.75 21 17.75C21.1989 17.75 21.3897 17.671 21.5303 17.5303C21.671 17.3897 21.75 17.1989 21.75 17V5.75C21.75 5.35218 21.592 4.97064 21.3107 4.68934C21.0294 4.40804 20.6478 4.25 20.25 4.25Z" fill="#6E6E6E"/>
</svg>
