<svg width="14" height="21" viewBox="0 0 14 21" fill="none" xmlns="http://www.w3.org/2000/svg">
<path d="M13.75 17.6719V20.25C13.75 20.4489 13.671 20.6397 13.5304 20.7803C13.3897 20.921 13.199 21 13 21C12.8011 21 12.6104 20.921 12.4697 20.7803C12.3291 20.6397 12.25 20.4489 12.25 20.25V17.6719C12.2537 16.5567 11.9449 15.4628 11.3587 14.5142C10.7725 13.5656 9.9322 12.8002 8.93317 12.3047L4.39567 10.0369C3.14695 9.41754 2.0967 8.46077 1.36398 7.27503C0.631257 6.08929 0.245364 4.72199 0.250042 3.32812V0.75C0.250042 0.551088 0.32906 0.360322 0.469712 0.21967C0.610364 0.0790176 0.80113 0 1.00004 0C1.19895 0 1.38972 0.0790176 1.53037 0.21967C1.67102 0.360322 1.75004 0.551088 1.75004 0.75V3.32812C1.74636 4.44327 2.05515 5.53715 2.64139 6.48577C3.22763 7.4344 4.06788 8.19983 5.06692 8.69531L9.60442 10.9631C10.8531 11.5825 11.9034 12.5392 12.6361 13.725C13.3688 14.9107 13.7547 16.278 13.75 17.6719ZM10 17.25H1.76598C1.80206 16.7391 1.90384 16.2349 2.06879 15.75H8.88535C9.08427 15.75 9.27503 15.671 9.41569 15.5303C9.55634 15.3897 9.63535 15.1989 9.63535 15C9.63535 14.8011 9.55634 14.6103 9.41569 14.4697C9.27503 14.329 9.08427 14.25 8.88535 14.25H2.82442C3.20078 13.7059 3.66491 13.2282 4.19785 12.8363C4.27739 12.778 4.34466 12.7046 4.39583 12.6203C4.447 12.536 4.48106 12.4424 4.49608 12.345C4.5111 12.2475 4.50677 12.1481 4.48335 12.0523C4.45993 11.9565 4.41787 11.8663 4.35957 11.7867C4.30128 11.7072 4.22789 11.6399 4.1436 11.5887C4.0593 11.5376 3.96576 11.5035 3.8683 11.4885C3.77084 11.4735 3.67138 11.4778 3.5756 11.5012C3.47981 11.5246 3.38957 11.5667 3.31004 11.625C2.36264 12.3234 1.59227 13.2343 1.06082 14.2845C0.529377 15.3347 0.251679 16.4949 0.250042 17.6719V20.25C0.250042 20.4489 0.32906 20.6397 0.469712 20.7803C0.610364 20.921 0.80113 21 1.00004 21C1.19895 21 1.38972 20.921 1.53037 20.7803C1.67102 20.6397 1.75004 20.4489 1.75004 20.25V18.75H10C10.199 18.75 10.3897 18.671 10.5304 18.5303C10.671 18.3897 10.75 18.1989 10.75 18C10.75 17.8011 10.671 17.6103 10.5304 17.4697C10.3897 17.329 10.199 17.25 10 17.25ZM13 0C12.8011 0 12.6104 0.0790176 12.4697 0.21967C12.3291 0.360322 12.25 0.551088 12.25 0.75V2.25H4.00004C3.80113 2.25 3.61036 2.32902 3.46971 2.46967C3.32906 2.61032 3.25004 2.80109 3.25004 3C3.25004 3.19891 3.32906 3.38968 3.46971 3.53033C3.61036 3.67098 3.80113 3.75 4.00004 3.75H12.2341C12.198 4.26093 12.0962 4.76508 11.9313 5.25H5.11473C4.91582 5.25 4.72505 5.32902 4.5844 5.46967C4.44375 5.61032 4.36473 5.80109 4.36473 6C4.36473 6.19891 4.44375 6.38968 4.5844 6.53033C4.72505 6.67098 4.91582 6.75 5.11473 6.75H11.1757C10.7993 7.29406 10.3352 7.77181 9.80223 8.16375C9.72282 8.22204 9.65567 8.29541 9.60462 8.37965C9.55356 8.4639 9.5196 8.55738 9.50467 8.65475C9.48974 8.75212 9.49413 8.85148 9.5176 8.94715C9.54107 9.04282 9.58315 9.13293 9.64145 9.21234C9.75918 9.37272 9.9358 9.47975 10.1324 9.5099C10.2298 9.52483 10.3292 9.52044 10.4248 9.49697C10.5205 9.4735 10.6106 9.43142 10.69 9.37313C11.6372 8.67491 12.4074 7.76432 12.9388 6.71448C13.4703 5.66464 13.7481 4.50481 13.75 3.32812V0.75C13.75 0.551088 13.671 0.360322 13.5304 0.21967C13.3897 0.0790176 13.199 0 13 0Z" fill="#E02D2D"/>
</svg>
