<svg width="23" height="17" viewBox="0 0 23 17" fill="none" xmlns="http://www.w3.org/2000/svg">
<path d="M17.5745 15.767C17.6665 15.8764 17.7253 16.0098 17.7441 16.1514C17.7629 16.2931 17.7407 16.4372 17.6804 16.5667C17.62 16.6963 17.5238 16.8058 17.4033 16.8826C17.2827 16.9593 17.1427 17 16.9998 16.9998H1.24982C1.10699 16.9998 0.96714 16.959 0.846715 16.8822C0.72629 16.8054 0.6303 16.6958 0.570033 16.5663C0.509767 16.4368 0.48773 16.2928 0.506515 16.1512C0.5253 16.0096 0.584126 15.8763 0.676073 15.767C2.0767 14.1002 3.81857 12.9161 5.75451 12.2823C4.5788 11.5501 3.67356 10.4548 3.17576 9.16223C2.67796 7.86966 2.61468 6.45013 2.99549 5.11839C3.37631 3.78666 4.18049 2.61518 5.28639 1.7812C6.39228 0.947211 7.73971 0.496094 9.12482 0.496094C10.5099 0.496094 11.8574 0.947211 12.9633 1.7812C14.0692 2.61518 14.8733 3.78666 15.2542 5.11839C15.635 6.45013 15.5717 7.86966 15.0739 9.16223C14.5761 10.4548 13.6709 11.5501 12.4951 12.2823C14.4311 12.9161 16.1729 14.1002 17.5745 15.767ZM22.9229 11.9373C22.857 12.0515 22.7622 12.1463 22.648 12.2121C22.5337 12.278 22.4042 12.3125 22.2723 12.3123C22.1406 12.3128 22.0112 12.2781 21.8973 12.212L21.4595 11.9589C21.25 12.1387 21.0091 12.2782 20.7489 12.3705V12.8748C20.7489 13.0738 20.6699 13.2645 20.5292 13.4052C20.3886 13.5458 20.1978 13.6248 19.9989 13.6248C19.8 13.6248 19.6092 13.5458 19.4686 13.4052C19.3279 13.2645 19.2489 13.0738 19.2489 12.8748V12.3705C18.9887 12.2782 18.7478 12.1387 18.5383 11.9589L18.1004 12.212C17.9866 12.2781 17.8571 12.3128 17.7254 12.3123C17.5603 12.3124 17.3997 12.258 17.2687 12.1574C17.1376 12.0569 17.0434 11.916 17.0007 11.7564C16.958 11.5969 16.9691 11.4277 17.0323 11.2752C17.0956 11.1226 17.2074 10.9952 17.3504 10.9127L17.7873 10.6605C17.7361 10.3891 17.7361 10.1106 17.7873 9.83922L17.3504 9.58703C17.2651 9.53778 17.1903 9.47222 17.1304 9.39407C17.0704 9.31592 17.0264 9.22673 17.0009 9.13158C16.9754 9.03643 16.9689 8.93718 16.9817 8.83951C16.9946 8.74184 17.0265 8.64766 17.0758 8.56234C17.125 8.47703 17.1906 8.40224 17.2687 8.34226C17.3469 8.28229 17.4361 8.23829 17.5312 8.21278C17.6264 8.18727 17.7256 8.18076 17.8233 8.1936C17.9209 8.20645 18.0151 8.23841 18.1004 8.28766L18.5383 8.54078C18.7478 8.36102 18.9887 8.22149 19.2489 8.12922V7.62484C19.2489 7.42593 19.3279 7.23517 19.4686 7.09451C19.6092 6.95386 19.8 6.87484 19.9989 6.87484C20.1978 6.87484 20.3886 6.95386 20.5292 7.09451C20.6699 7.23517 20.7489 7.42593 20.7489 7.62484V8.12922C21.0091 8.22149 21.25 8.36102 21.4595 8.54078L21.8973 8.28766C21.9826 8.23841 22.0768 8.20645 22.1745 8.1936C22.2722 8.18076 22.3714 8.18727 22.4666 8.21278C22.5617 8.23829 22.6509 8.28229 22.7291 8.34226C22.8072 8.40224 22.8728 8.47703 22.922 8.56234C22.9713 8.64766 23.0032 8.74184 23.0161 8.83951C23.0289 8.93718 23.0224 9.03643 22.9969 9.13158C22.9714 9.22673 22.9274 9.31592 22.8674 9.39407C22.8074 9.47222 22.7326 9.53778 22.6473 9.58703L22.2104 9.83922C22.2617 10.1106 22.2617 10.3891 22.2104 10.6605L22.6473 10.9127C22.7327 10.9618 22.8076 11.0273 22.8677 11.1054C22.9278 11.1835 22.9719 11.2727 22.9975 11.3679C23.0231 11.463 23.0297 11.5623 23.0169 11.66C23.0041 11.7577 22.9722 11.852 22.9229 11.9373ZM19.9998 10.9998C20.1482 10.9998 20.2932 10.9559 20.4165 10.8734C20.5398 10.791 20.636 10.6739 20.6927 10.5369C20.7495 10.3998 20.7644 10.249 20.7354 10.1035C20.7065 9.95804 20.635 9.8244 20.5302 9.71951C20.4253 9.61462 20.2916 9.54319 20.1461 9.51425C20.0007 9.48532 19.8499 9.50017 19.7128 9.55693C19.5758 9.6137 19.4586 9.70983 19.3762 9.83317C19.2938 9.9565 19.2498 10.1015 19.2498 10.2498C19.2498 10.4488 19.3288 10.6395 19.4695 10.7802C19.6101 10.9208 19.8009 10.9998 19.9998 10.9998Z" fill="#115934"/>
</svg>
