<svg width="18" height="21" viewBox="0 0 18 21" fill="none" xmlns="http://www.w3.org/2000/svg">
<path d="M17.0306 6.21938L11.7806 0.969375C11.7109 0.899749 11.6282 0.844539 11.5371 0.806898C11.4461 0.769257 11.3485 0.749923 11.25 0.75H2.25C1.85218 0.75 1.47064 0.908035 1.18934 1.18934C0.908035 1.47064 0.75 1.85218 0.75 2.25V18.75C0.75 19.1478 0.908035 19.5294 1.18934 19.8107C1.47064 20.092 1.85218 20.25 2.25 20.25H15.75C16.1478 20.25 16.5294 20.092 16.8107 19.8107C17.092 19.5294 17.25 19.1478 17.25 18.75V6.75C17.2501 6.65148 17.2307 6.55391 17.1931 6.46286C17.1555 6.37182 17.1003 6.28908 17.0306 6.21938ZM11.7806 14.4694C11.8503 14.5391 11.9056 14.6218 11.9433 14.7128C11.981 14.8039 12.0004 14.9015 12.0004 15C12.0004 15.0985 11.981 15.1961 11.9433 15.2872C11.9056 15.3782 11.8503 15.4609 11.7806 15.5306C11.7109 15.6003 11.6282 15.6556 11.5372 15.6933C11.4461 15.731 11.3485 15.7504 11.25 15.7504C11.1515 15.7504 11.0539 15.731 10.9628 15.6933C10.8718 15.6556 10.7891 15.6003 10.7194 15.5306L9 13.8103L7.28063 15.5306C7.21094 15.6003 7.12822 15.6556 7.03717 15.6933C6.94613 15.731 6.84855 15.7504 6.75 15.7504C6.65145 15.7504 6.55387 15.731 6.46283 15.6933C6.37178 15.6556 6.28906 15.6003 6.21937 15.5306C6.14969 15.4609 6.09442 15.3782 6.0567 15.2872C6.01899 15.1961 5.99958 15.0985 5.99958 15C5.99958 14.9015 6.01899 14.8039 6.0567 14.7128C6.09442 14.6218 6.14969 14.5391 6.21937 14.4694L7.93969 12.75L6.21937 11.0306C6.07864 10.8899 5.99958 10.699 5.99958 10.5C5.99958 10.301 6.07864 10.1101 6.21937 9.96937C6.36011 9.82864 6.55098 9.74958 6.75 9.74958C6.94902 9.74958 7.13989 9.82864 7.28063 9.96937L9 11.6897L10.7194 9.96937C10.7891 9.89969 10.8718 9.84442 10.9628 9.8067C11.0539 9.76899 11.1515 9.74958 11.25 9.74958C11.3485 9.74958 11.4461 9.76899 11.5372 9.8067C11.6282 9.84442 11.7109 9.89969 11.7806 9.96937C11.8503 10.0391 11.9056 10.1218 11.9433 10.2128C11.981 10.3039 12.0004 10.4015 12.0004 10.5C12.0004 10.5985 11.981 10.6961 11.9433 10.7872C11.9056 10.8782 11.8503 10.9609 11.7806 11.0306L10.0603 12.75L11.7806 14.4694ZM11.25 6.75V2.625L15.375 6.75H11.25Z" fill="#E02D2D"/>
</svg>
