<svg width="40" height="40" viewBox="0 0 40 40" fill="none" xmlns="http://www.w3.org/2000/svg">
<path d="M30.1239 2.58789L37.0789 9.83789V37.4079H11.0977V37.4979H37.1677V9.92914L30.1239 2.58789Z" fill="#909090"/>
<path d="M30.0405 2.5H11.0117V37.41H37.0817V9.84125L30.0405 2.5Z" fill="white"/>
<path d="M10.8195 4.375H2.83203V12.9087H27.957V4.375H10.8195Z" fill="#7A7B7C"/>
<path d="M28.0884 12.7627H2.99219V4.22266H28.0884V12.7627Z" fill="#DD2025"/>
<path d="M11.3115 5.66736H9.67773V11.6674H10.9627V9.64361L11.2465 9.65986C11.5222 9.65512 11.7953 9.60573 12.0552 9.51361C12.2831 9.43524 12.4927 9.3115 12.6715 9.14986C12.8534 8.99589 12.9968 8.80156 13.0902 8.58236C13.2156 8.21799 13.2604 7.83074 13.2215 7.44736C13.2137 7.1735 13.1657 6.90227 13.079 6.64236C13.0001 6.45475 12.883 6.28561 12.7351 6.14573C12.5873 6.00585 12.4119 5.89828 12.2202 5.82986C12.0545 5.76986 11.8833 5.72632 11.709 5.69986C11.577 5.6795 11.4438 5.66864 11.3102 5.66736M11.074 8.53486H10.9627V6.68486H11.204C11.3105 6.67719 11.4173 6.69353 11.5166 6.73269C11.6159 6.77185 11.7052 6.83283 11.7777 6.91111C11.9281 7.11238 12.0085 7.35737 12.0065 7.60861C12.0065 7.91611 12.0065 8.19486 11.729 8.39111C11.5291 8.50107 11.3015 8.55183 11.074 8.53486ZM15.6627 5.65111C15.524 5.65111 15.389 5.66111 15.294 5.66486L14.9965 5.67236H14.0215V11.6724H15.169C15.6075 11.6844 16.0441 11.6101 16.454 11.4536C16.7839 11.3228 17.076 11.1118 17.304 10.8399C17.5257 10.5654 17.6848 10.2459 17.7702 9.90361C17.8684 9.51595 17.9163 9.11726 17.9127 8.71736C17.937 8.24506 17.9004 7.7716 17.804 7.30861C17.7125 6.96782 17.5411 6.65373 17.304 6.39236C17.118 6.18132 16.8903 6.01108 16.6352 5.89236C16.4162 5.79101 16.1858 5.71631 15.949 5.66986C15.8548 5.65431 15.7594 5.6472 15.664 5.64861M15.4365 10.5699H15.3115V6.73986H15.3277C15.5854 6.71021 15.8462 6.75671 16.0777 6.87361C16.2473 7.00902 16.3855 7.17961 16.4827 7.37361C16.5877 7.57778 16.6482 7.80187 16.6602 8.03111C16.6715 8.30611 16.6602 8.53111 16.6602 8.71736C16.6653 8.93191 16.6515 9.14649 16.619 9.35861C16.5805 9.5764 16.5092 9.78711 16.4077 9.98361C16.2928 10.1663 16.1376 10.3202 15.954 10.4336C15.7998 10.5334 15.6171 10.5799 15.434 10.5661M21.784 5.67236H18.7465V11.6724H20.0315V9.29236H21.6565V8.17736H20.0315V6.78736H21.7815V5.67236" fill="#464648"/>
<path d="M27.2249 25.3169C27.2249 25.3169 31.2099 24.5944 31.2099 25.9557C31.2099 27.3169 28.7411 26.7632 27.2249 25.3169ZM24.2786 25.4207C23.6455 25.5606 23.0285 25.7654 22.4374 26.0319L22.9374 24.9069C23.4374 23.7819 23.9561 22.2482 23.9561 22.2482C24.5528 23.2523 25.247 24.1952 26.0286 25.0632C25.4392 25.1511 24.8549 25.2713 24.2786 25.4232V25.4207ZM22.7011 17.2957C22.7011 16.1094 23.0849 15.7857 23.3836 15.7857C23.6824 15.7857 24.0186 15.9294 24.0299 16.9594C23.9326 17.9951 23.7157 19.0161 23.3836 20.0019C22.9288 19.1742 22.6934 18.2439 22.6999 17.2994L22.7011 17.2957ZM16.8899 30.4407C15.6674 29.7094 19.4536 27.4582 20.1399 27.3857C20.1361 27.3869 18.1699 31.2057 16.8899 30.4407ZM32.3736 26.1169C32.3611 25.9919 32.2486 24.6082 29.7861 24.6669C28.7597 24.6504 27.7338 24.7227 26.7199 24.8832C25.7377 23.8937 24.8919 22.7776 24.2049 21.5644C24.6377 20.3137 24.8997 19.0103 24.9836 17.6894C24.9474 16.1894 24.5886 15.3294 23.4386 15.3419C22.2886 15.3544 22.1211 16.3607 22.2724 17.8582C22.4205 18.8645 22.7 19.847 23.1036 20.7807C23.1036 20.7807 22.5724 22.4344 21.8699 24.0794C21.1674 25.7244 20.6874 26.5869 20.6874 26.5869C19.4658 26.9846 18.3158 27.5754 17.2811 28.3369C16.2511 29.2957 15.8324 30.0319 16.3749 30.7682C16.8424 31.4032 18.4786 31.5469 19.9411 29.6307C20.7182 28.6409 21.4281 27.6003 22.0661 26.5157C22.0661 26.5157 24.2961 25.9044 24.9899 25.7369C25.6836 25.5694 26.5224 25.4369 26.5224 25.4369C26.5224 25.4369 28.5586 27.4857 30.5224 27.4132C32.4861 27.3407 32.3911 26.2394 32.3786 26.1194" fill="#DD2025"/>
<path d="M29.9414 2.59766V9.93891H36.9827L29.9414 2.59766Z" fill="#909090"/>
<path d="M30.0391 2.5V9.84125H37.0803L30.0391 2.5Z" fill="#BDBEBF"/>
<path d="M11.2197 5.56971H9.58594V11.5697H10.8759V9.54721L11.1609 9.56346C11.4367 9.55871 11.7098 9.50932 11.9697 9.41721C12.1976 9.3388 12.4072 9.21506 12.5859 9.05346C12.7664 8.89907 12.9085 8.70477 13.0009 8.48596C13.1263 8.12158 13.1711 7.73433 13.1322 7.35096C13.1244 7.07709 13.0764 6.80586 12.9897 6.54596C12.9108 6.35834 12.7937 6.18921 12.6458 6.04932C12.498 5.90944 12.3226 5.80187 12.1309 5.73346C11.9644 5.67287 11.7923 5.62891 11.6172 5.60221C11.4852 5.58185 11.352 5.57099 11.2184 5.56971M10.9822 8.43721H10.8709V6.58721H11.1134C11.2199 6.57953 11.3268 6.59588 11.4261 6.63504C11.5254 6.6742 11.6146 6.73517 11.6872 6.81346C11.8376 7.01473 11.9179 7.25971 11.9159 7.51096C11.9159 7.81846 11.9159 8.09721 11.6384 8.29346C11.4385 8.40341 11.211 8.45292 10.9834 8.43596M15.5709 5.55346C15.4322 5.55346 15.2972 5.56346 15.2022 5.56721L14.9084 5.57471H13.9334V11.5747H15.0809C15.5195 11.5867 15.9561 11.5124 16.3659 11.356C16.6958 11.2251 16.9879 11.0142 17.2159 10.7422C17.4376 10.4678 17.5968 10.1483 17.6822 9.80596C17.7804 9.41829 17.8283 9.0196 17.8247 8.61971C17.8489 8.14741 17.8124 7.67394 17.7159 7.21096C17.6244 6.87016 17.453 6.55607 17.2159 6.29471C17.0299 6.08366 16.8022 5.91342 16.5472 5.79471C16.3282 5.69335 16.0978 5.61865 15.8609 5.57221C15.7668 5.55665 15.6714 5.54954 15.5759 5.55096M15.3484 10.4722H15.2234V6.64221H15.2397C15.4974 6.61256 15.7581 6.65906 15.9897 6.77596C16.1593 6.91137 16.2974 7.08196 16.3947 7.27596C16.4996 7.48013 16.5601 7.70421 16.5722 7.93346C16.5834 8.20846 16.5722 8.43346 16.5722 8.61971C16.5773 8.83425 16.5635 9.04883 16.5309 9.26096C16.4924 9.47874 16.4212 9.68946 16.3197 9.88596C16.2048 10.0687 16.0496 10.2226 15.8659 10.336C15.7117 10.4357 15.5291 10.4822 15.3459 10.4685M21.6922 5.57471H18.6547V11.5747H19.9397V9.19471H21.5647V8.07971H19.9397V6.68971H21.6897V5.57471" fill="white"/>
</svg>
