<svg width="18" height="20" viewBox="0 0 18 20" fill="none" xmlns="http://www.w3.org/2000/svg">
<path d="M17.7835 17.2284L12 7.58625V2.25H12.75C12.9489 2.25 13.1397 2.17098 13.2804 2.03033C13.421 1.88968 13.5 1.69891 13.5 1.5C13.5 1.30109 13.421 1.11032 13.2804 0.96967C13.1397 0.829018 12.9489 0.75 12.75 0.75H5.25002C5.05111 0.75 4.86034 0.829018 4.71969 0.96967C4.57904 1.11032 4.50002 1.30109 4.50002 1.5C4.50002 1.69891 4.57904 1.88968 4.71969 2.03033C4.86034 2.17098 5.05111 2.25 5.25002 2.25H6.00002V7.58625L0.216584 17.2284C0.080181 17.4558 0.00650268 17.7154 0.0030564 17.9805C-0.000389887 18.2457 0.066519 18.507 0.196965 18.7379C0.327411 18.9688 0.516731 19.1609 0.745635 19.2948C0.974538 19.4287 1.23484 19.4995 1.50002 19.5H16.5C16.7654 19.5 17.0261 19.4295 17.2554 19.2959C17.4847 19.1622 17.6744 18.9701 17.8052 18.7391C17.936 18.5081 18.0031 18.2466 17.9998 17.9812C17.9965 17.7158 17.9228 17.4561 17.7863 17.2284H17.7835ZM7.39315 8.17969C7.46329 8.06342 7.50025 7.93016 7.50002 7.79437V2.25H10.5V7.79437C10.4998 7.93016 10.5368 8.06342 10.6069 8.17969L14.19 14.1562C13.065 14.3784 11.4647 14.2847 9.33846 13.2084C7.8469 12.4537 6.42752 12.0534 5.09908 12.0075L7.39315 8.17969ZM1.50002 18L4.17565 13.5394C5.51158 13.3763 7.01721 13.7128 8.65877 14.5444C10.44 15.4453 11.94 15.7519 13.1588 15.7519C13.7786 15.7546 14.3957 15.6694 14.9916 15.4988L16.5 18H1.50002Z" fill="#305CFF"/>
</svg>
