<svg width="20" height="21" viewBox="0 0 20 21" fill="none" xmlns="http://www.w3.org/2000/svg">
<path d="M2 14.5V18.5H6V20.5H0V14.5H2ZM20 14.5V20.5H14V18.5H18V14.5H20ZM5.5 5.5C5.5 7.98528 7.51472 10 10 10C12.4853 10 14.5 7.98528 14.5 5.5H16.5C16.5 8.00729 15.0804 10.183 13.0011 11.2672L13 17.5H7L6.99992 11.2677C4.92007 10.1837 3.5 8.00769 3.5 5.5H5.5ZM10 3.5C11.3807 3.5 12.5 4.61929 12.5 6C12.5 7.38071 11.3807 8.5 10 8.5C8.6193 8.5 7.5 7.38071 7.5 6C7.5 4.61929 8.6193 3.5 10 3.5ZM6 0.5V2.5L2 2.499V6.5H0V0.5H6ZM20 0.5V6.5H18V2.5H14V0.5H20Z" fill="#115934"/>
</svg>
