<svg width="18" height="19" viewBox="0 0 18 19" fill="none" xmlns="http://www.w3.org/2000/svg">
<path d="M16.5 0.5H1.5C1.10218 0.5 0.720644 0.658035 0.43934 0.93934C0.158035 1.22064 0 1.60218 0 2V17C0 17.3978 0.158035 17.7794 0.43934 18.0607C0.720644 18.342 1.10218 18.5 1.5 18.5H11.6897C11.8867 18.5006 12.082 18.4621 12.264 18.3866C12.446 18.3111 12.6112 18.2002 12.75 18.0603L17.5603 13.25C17.7002 13.1112 17.8111 12.946 17.8866 12.764C17.9621 12.582 18.0006 12.3867 18 12.1897V2C18 1.60218 17.842 1.22064 17.5607 0.93934C17.2794 0.658035 16.8978 0.5 16.5 0.5ZM12 16.6897V12.5H16.1897L12 16.6897Z" fill="#14B864"/>
</svg>
