<svg width="40" height="40" viewBox="0 0 40 40" fill="none" xmlns="http://www.w3.org/2000/svg">
<rect width="40" height="40" rx="20" fill="#E7F0FE"/>
<path d="M28.2959 15.455L23.0459 10.205C22.9415 10.1004 22.8174 10.0174 22.6808 9.96078C22.5442 9.90416 22.3978 9.87501 22.25 9.875H13.25C12.7527 9.875 12.2758 10.0725 11.9242 10.4242C11.5725 10.7758 11.375 11.2527 11.375 11.75V28.25C11.375 28.7473 11.5725 29.2242 11.9242 29.5758C12.2758 29.9275 12.7527 30.125 13.25 30.125H26.75C27.2473 30.125 27.7242 29.9275 28.0758 29.5758C28.4275 29.2242 28.625 28.7473 28.625 28.25V16.25C28.625 15.9519 28.5066 15.6659 28.2959 15.455ZM25.1562 15.5H23V13.3438L25.1562 15.5ZM13.625 27.875V12.125H20.75V16.625C20.75 16.9234 20.8685 17.2095 21.0795 17.4205C21.2905 17.6315 21.5766 17.75 21.875 17.75H26.375V27.875H13.625ZM23.0459 21.0791C23.2573 21.2904 23.376 21.5771 23.376 21.8759C23.376 22.1748 23.2573 22.4615 23.0459 22.6728C22.8346 22.8842 22.5479 23.0029 22.2491 23.0029C21.9502 23.0029 21.6635 22.8842 21.4522 22.6728L21.125 22.3438V25.25C21.125 25.5484 21.0065 25.8345 20.7955 26.0455C20.5845 26.2565 20.2984 26.375 20 26.375C19.7016 26.375 19.4155 26.2565 19.2045 26.0455C18.9935 25.8345 18.875 25.5484 18.875 25.25V22.3438L18.5459 22.6737C18.3346 22.8851 18.0479 23.0038 17.7491 23.0038C17.4502 23.0038 17.1635 22.8851 16.9522 22.6737C16.7408 22.4624 16.6221 22.1758 16.6221 21.8769C16.6221 21.578 16.7408 21.2913 16.9522 21.08L19.2022 18.83C19.3067 18.7251 19.4309 18.6419 19.5676 18.5851C19.7044 18.5283 19.851 18.4991 19.9991 18.4991C20.1471 18.4991 20.2937 18.5283 20.4305 18.5851C20.5672 18.6419 20.6914 18.7251 20.7959 18.83L23.0459 21.0791Z" fill="#2275F2"/>
</svg>
