<svg width="18" height="21" viewBox="0 0 18 21" fill="none" xmlns="http://www.w3.org/2000/svg">
<path d="M17.0306 4.71938L13.2806 0.969375C13.2109 0.899749 13.1282 0.844539 13.0371 0.806898C12.9461 0.769257 12.8485 0.749923 12.75 0.75H5.25C4.85218 0.75 4.47064 0.908035 4.18934 1.18934C3.90804 1.47064 3.75 1.85218 3.75 2.25V3.75H2.25C1.85218 3.75 1.47064 3.90804 1.18934 4.18934C0.908035 4.47064 0.75 4.85218 0.75 5.25V18.75C0.75 19.1478 0.908035 19.5294 1.18934 19.8107C1.47064 20.092 1.85218 20.25 2.25 20.25H12.75C13.1478 20.25 13.5294 20.092 13.8107 19.8107C14.092 19.5294 14.25 19.1478 14.25 18.75V17.25H15.75C16.1478 17.25 16.5294 17.092 16.8107 16.8107C17.092 16.5294 17.25 16.1478 17.25 15.75V5.25C17.2501 5.15148 17.2307 5.05391 17.1931 4.96286C17.1555 4.87182 17.1003 4.78908 17.0306 4.71938ZM9.75 16.5H5.25C5.05109 16.5 4.86032 16.421 4.71967 16.2803C4.57902 16.1397 4.5 15.9489 4.5 15.75C4.5 15.5511 4.57902 15.3603 4.71967 15.2197C4.86032 15.079 5.05109 15 5.25 15H9.75C9.94891 15 10.1397 15.079 10.2803 15.2197C10.421 15.3603 10.5 15.5511 10.5 15.75C10.5 15.9489 10.421 16.1397 10.2803 16.2803C10.1397 16.421 9.94891 16.5 9.75 16.5ZM9.75 13.5H5.25C5.05109 13.5 4.86032 13.421 4.71967 13.2803C4.57902 13.1397 4.5 12.9489 4.5 12.75C4.5 12.5511 4.57902 12.3603 4.71967 12.2197C4.86032 12.079 5.05109 12 5.25 12H9.75C9.94891 12 10.1397 12.079 10.2803 12.2197C10.421 12.3603 10.5 12.5511 10.5 12.75C10.5 12.9489 10.421 13.1397 10.2803 13.2803C10.1397 13.421 9.94891 13.5 9.75 13.5ZM15.75 15.75H14.25V8.25C14.2501 8.15148 14.2307 8.05391 14.1931 7.96286C14.1555 7.87182 14.1003 7.78908 14.0306 7.71937L10.2806 3.96938C10.2109 3.89975 10.1282 3.84454 10.0371 3.8069C9.94609 3.76926 9.84852 3.74992 9.75 3.75H5.25V2.25H12.4397L15.75 5.56031V15.75Z" fill="#115934"/>
</svg>
