<svg width="41" height="40" viewBox="0 0 41 40" fill="none" xmlns="http://www.w3.org/2000/svg">
<rect x="0.333008" width="40" height="40" rx="20" fill="#FCEEE8"/>
<path d="M29.7783 17.3797C29.4483 17.0356 29.108 16.6803 28.9964 16.4113C28.8971 16.1713 28.8896 15.6772 28.883 15.2422C28.8689 14.3047 28.8511 13.1384 28.0224 12.3106C27.1936 11.4828 26.0283 11.4669 25.0908 11.45C24.6558 11.4434 24.1618 11.4359 23.9218 11.3366C23.6527 11.225 23.2974 10.8847 22.9533 10.5547C22.2896 9.91813 21.4627 9.125 20.333 9.125C19.2033 9.125 18.3764 9.91813 17.7127 10.5547C17.3686 10.8847 17.0133 11.225 16.7443 11.3366C16.5043 11.4359 16.0102 11.4434 15.5752 11.45C14.6377 11.4688 13.4714 11.4819 12.6455 12.3125C11.8196 13.1431 11.8018 14.3047 11.783 15.2422C11.7764 15.6772 11.7689 16.1713 11.6696 16.4113C11.558 16.6803 11.2177 17.0356 10.8877 17.3797C10.2511 18.0434 9.45801 18.875 9.45801 20C9.45801 21.125 10.2511 21.9566 10.8877 22.625C11.2177 22.9691 11.558 23.3244 11.6696 23.5934C11.7689 23.8334 11.7764 24.3275 11.783 24.7625C11.7971 25.7 11.8149 26.8663 12.6436 27.6941C13.4724 28.5219 14.6377 28.5378 15.5752 28.5547C16.0102 28.5613 16.5043 28.5688 16.7443 28.6681C17.0133 28.7797 17.3686 29.12 17.7127 29.45C18.3764 30.0819 19.208 30.875 20.333 30.875C21.458 30.875 22.2896 30.0819 22.9533 29.4453C23.2974 29.1153 23.6527 28.775 23.9218 28.6634C24.1618 28.5641 24.6558 28.5566 25.0908 28.55C26.0283 28.5359 27.1946 28.5181 28.0224 27.6894C28.8502 26.8606 28.8661 25.6953 28.883 24.7578C28.8896 24.3228 28.8971 23.8287 28.9964 23.5887C29.108 23.3197 29.4483 22.9644 29.7783 22.6203C30.4149 21.9566 31.208 21.1297 31.208 20C31.208 18.8703 30.4149 18.0434 29.7783 17.3797ZM28.1546 21.0631C27.7027 21.5319 27.1908 22.0681 26.918 22.7281C26.6536 23.3656 26.6433 24.0556 26.6368 24.7241C26.6293 25.2266 26.6189 25.9156 26.4352 26.0984C26.2514 26.2812 25.5633 26.2925 25.0608 26.3C24.3924 26.3103 23.7024 26.3206 23.0649 26.5812C22.4086 26.8541 21.8714 27.3659 21.3999 27.8178C21.0624 28.1413 20.558 28.625 20.333 28.625C20.108 28.625 19.6036 28.1412 19.2699 27.8216C18.8011 27.3697 18.2649 26.8578 17.6049 26.585C16.9674 26.3206 16.2774 26.3103 15.6089 26.3038C15.1064 26.2963 14.4174 26.2859 14.2346 26.1022C14.0518 25.9184 14.0405 25.2303 14.033 24.7278C14.0227 24.0594 14.0124 23.3694 13.7518 22.7319C13.4789 22.0756 12.9671 21.5384 12.5152 21.0669C12.1918 20.7294 11.708 20.225 11.708 20C11.708 19.775 12.1918 19.2706 12.5114 18.9369C12.9633 18.4681 13.4752 17.9319 13.748 17.2719C14.0124 16.6344 14.0227 15.9444 14.0293 15.2759C14.0405 14.7734 14.0518 14.0844 14.2393 13.9062C14.4268 13.7281 15.1111 13.7122 15.6136 13.7047C16.2821 13.6944 16.9721 13.6841 17.6096 13.4234C18.2658 13.1506 18.803 12.6388 19.2746 12.1869C19.6036 11.8587 20.108 11.375 20.333 11.375C20.558 11.375 21.0624 11.8587 21.3961 12.1784C21.8649 12.6303 22.4011 13.1422 23.0611 13.415C23.6986 13.6794 24.3886 13.6897 25.0571 13.6962C25.5596 13.7037 26.2486 13.7141 26.4314 13.8978C26.6143 14.0816 26.6255 14.7697 26.633 15.2722C26.6433 15.9406 26.6536 16.6306 26.9143 17.2681C27.1871 17.9244 27.6989 18.4616 28.1508 18.9331C28.4705 19.2669 28.9543 19.7712 28.9543 19.9963C28.9543 20.2212 28.4743 20.7294 28.1546 21.0631ZM24.8789 16.9541C24.9838 17.0586 25.067 17.1828 25.1238 17.3195C25.1806 17.4563 25.2098 17.6029 25.2098 17.7509C25.2098 17.899 25.1806 18.0456 25.1238 18.1824C25.067 18.3191 24.9838 18.4433 24.8789 18.5478L19.6289 23.7978C19.5244 23.9027 19.4002 23.9859 19.2635 24.0427C19.1267 24.0995 18.9801 24.1287 18.8321 24.1287C18.684 24.1287 18.5374 24.0995 18.4006 24.0427C18.2639 23.9859 18.1397 23.9027 18.0352 23.7978L15.7852 21.5478C15.6805 21.4432 15.5975 21.3189 15.5409 21.1822C15.4843 21.0455 15.4551 20.8989 15.4551 20.7509C15.4551 20.6029 15.4843 20.4564 15.5409 20.3197C15.5975 20.1829 15.6805 20.0587 15.7852 19.9541C15.8898 19.8494 16.0141 19.7664 16.1508 19.7098C16.2875 19.6531 16.4341 19.624 16.5821 19.624C16.7301 19.624 16.8766 19.6531 17.0133 19.7098C17.1501 19.7664 17.2743 19.8494 17.3789 19.9541L18.833 21.4062L23.2871 16.9513C23.3917 16.8468 23.516 16.7641 23.6526 16.7077C23.7893 16.6513 23.9357 16.6224 24.0836 16.6227C24.2314 16.623 24.3778 16.6524 24.5142 16.7092C24.6507 16.7661 24.7746 16.8493 24.8789 16.9541Z" fill="#E02D2D"/>
</svg>
