<svg width="22" height="21" viewBox="0 0 22 21" fill="none" xmlns="http://www.w3.org/2000/svg">
<path d="M21.4998 10.3716C21.2747 7.74346 20.0703 5.29584 18.1256 3.51379C16.1809 1.73174 13.6376 0.745323 10.9998 0.750017C8.36291 0.746499 5.82081 1.73345 3.87705 3.51538C1.9333 5.29731 0.729661 7.74426 0.504532 10.3716C0.486733 10.5787 0.512177 10.7872 0.579251 10.984C0.646325 11.1808 0.753564 11.3614 0.894164 11.5146C1.03476 11.6677 1.20566 11.7899 1.396 11.8735C1.58633 11.957 1.79197 12.0001 1.99985 12H10.2498V17.25C10.2498 18.0457 10.5659 18.8087 11.1285 19.3713C11.6911 19.9339 12.4542 20.25 13.2498 20.25C14.0455 20.25 14.8086 19.9339 15.3712 19.3713C15.9338 18.8087 16.2498 18.0457 16.2498 17.25C16.2498 17.0511 16.1708 16.8603 16.0302 16.7197C15.8895 16.579 15.6988 16.5 15.4998 16.5C15.3009 16.5 15.1102 16.579 14.9695 16.7197C14.8289 16.8603 14.7498 17.0511 14.7498 17.25C14.7498 17.6478 14.5918 18.0294 14.3105 18.3107C14.0292 18.592 13.6477 18.75 13.2498 18.75C12.852 18.75 12.4705 18.592 12.1892 18.3107C11.9079 18.0294 11.7498 17.6478 11.7498 17.25V12H19.9998C20.2081 12.0008 20.4143 11.9582 20.6052 11.8749C20.7961 11.7916 20.9675 11.6695 21.1086 11.5163C21.2497 11.3631 21.3574 11.1822 21.4248 10.9851C21.4921 10.788 21.5177 10.5791 21.4998 10.3716ZM1.99985 10.5C2.16607 8.568 2.9509 6.74109 4.23782 5.29051C5.52474 3.83994 7.24514 2.84304 9.1436 2.44783C8.04485 3.93752 6.67328 6.57283 6.51578 10.5H1.99985ZM15.4839 10.5C15.3264 6.57283 13.9548 3.93752 12.8589 2.44314C14.7581 2.83802 16.479 3.8355 17.7657 5.28718C19.0523 6.73886 19.8359 8.56715 19.9998 10.5H15.4839Z" fill="#2275F2"/>
</svg>
