<svg width="41" height="40" viewBox="0 0 41 40" fill="none" xmlns="http://www.w3.org/2000/svg">
<rect x="0.666992" width="40" height="40" rx="20" fill="#F5F0FB"/>
<path d="M28.167 10.625H26.292V10.25C26.292 9.95163 26.1735 9.66548 25.9625 9.4545C25.7515 9.24353 25.4654 9.125 25.167 9.125C24.8686 9.125 24.5825 9.24353 24.3715 9.4545C24.1605 9.66548 24.042 9.95163 24.042 10.25V10.625H17.292V10.25C17.292 9.95163 17.1735 9.66548 16.9625 9.4545C16.7515 9.24353 16.4654 9.125 16.167 9.125C15.8686 9.125 15.5825 9.24353 15.3715 9.4545C15.1605 9.66548 15.042 9.95163 15.042 10.25V10.625H13.167C12.6697 10.625 12.1928 10.8225 11.8412 11.1742C11.4895 11.5258 11.292 12.0027 11.292 12.5V27.5C11.292 27.9973 11.4895 28.4742 11.8412 28.8258C12.1928 29.1775 12.6697 29.375 13.167 29.375H28.167C28.6643 29.375 29.1412 29.1775 29.4928 28.8258C29.8444 28.4742 30.042 27.9973 30.042 27.5V12.5C30.042 12.0027 29.8444 11.5258 29.4928 11.1742C29.1412 10.8225 28.6643 10.625 28.167 10.625ZM15.042 12.875C15.042 13.1734 15.1605 13.4595 15.3715 13.6705C15.5825 13.8815 15.8686 14 16.167 14C16.4654 14 16.7515 13.8815 16.9625 13.6705C17.1735 13.4595 17.292 13.1734 17.292 12.875H24.042C24.042 13.1734 24.1605 13.4595 24.3715 13.6705C24.5825 13.8815 24.8686 14 25.167 14C25.4654 14 25.7515 13.8815 25.9625 13.6705C26.1735 13.4595 26.292 13.1734 26.292 12.875H27.792V15.125H13.542V12.875H15.042ZM13.542 27.125V17.375H27.792V27.125H13.542ZM24.8379 19.2041C24.9428 19.3086 25.026 19.4328 25.0828 19.5695C25.1396 19.7063 25.1688 19.8529 25.1688 20.0009C25.1688 20.149 25.1396 20.2956 25.0828 20.4324C25.026 20.5691 24.9428 20.6933 24.8379 20.7978L20.3379 25.2978C20.2334 25.4027 20.1092 25.4859 19.9725 25.5427C19.8357 25.5995 19.6891 25.6287 19.5411 25.6287C19.393 25.6287 19.2464 25.5995 19.1096 25.5427C18.9729 25.4859 18.8487 25.4027 18.7442 25.2978L16.4942 23.0478C16.2828 22.8365 16.1641 22.5498 16.1641 22.2509C16.1641 21.9521 16.2828 21.6654 16.4942 21.4541C16.7055 21.2427 16.9922 21.124 17.2911 21.124C17.5899 21.124 17.8766 21.2427 18.0879 21.4541L19.542 22.9062L23.2461 19.2013C23.3507 19.0968 23.4749 19.0141 23.6116 18.9577C23.7483 18.9013 23.8947 18.8724 24.0426 18.8727C24.1904 18.873 24.3368 18.9024 24.4732 18.9592C24.6097 19.0161 24.7336 19.0993 24.8379 19.2041Z" fill="#9747FF"/>
</svg>
